<svg id="Groupe_2836" data-name="Groupe 2836" xmlns="http://www.w3.org/2000/svg" width="78.917" height="106.227" viewBox="0 0 78.917 106.227">
  <g id="Groupe_2085" data-name="Groupe 2085" transform="translate(0 0)">
    <g id="Groupe_2006" data-name="Groupe 2006">
      <g id="Groupe_2005" data-name="Groupe 2005">
        <path id="Tracé_3114" data-name="Tracé 3114" d="M987.136,294.96v-1.62a4.119,4.119,0,0,0-4.115-4.115h-68.1a4.12,4.12,0,0,0-4.115,4.115v1.62a5.389,5.389,0,0,0-1.3,3.509v4.42a5.388,5.388,0,0,0,1.3,3.509v68.789a4.12,4.12,0,0,0,4.115,4.115h1.783v5.27a10.88,10.88,0,0,0,21.761,0V379.3h21.006v5.27a10.881,10.881,0,0,0,21.762,0V379.3h1.783a4.119,4.119,0,0,0,4.115-4.115V306.4a5.386,5.386,0,0,0,1.3-3.509v-4.42A5.384,5.384,0,0,0,987.136,294.96Z" transform="translate(-909.515 -289.225)" fill="none"/>
      </g>
    </g>
    <g id="Groupe_2084" data-name="Groupe 2084" transform="translate(3.527 3.192)">
      <g id="Groupe_2014" data-name="Groupe 2014" transform="translate(1.884 0.923)">
        <g id="Groupe_2007" data-name="Groupe 2007" transform="translate(21.093 4.206)">
          <path id="Tracé_3115" data-name="Tracé 3115" d="M979.409,309.009H952.572v-6.266h26.837Zm-24.991-1.847h23.144V304.59H954.419Z" transform="translate(-952.572 -302.743)" fill="#303030"/>
        </g>
        <g id="Groupe_2008" data-name="Groupe 2008">
          <rect id="Rectangle_861" data-name="Rectangle 861" width="22.016" height="5.129" fill="#676868"/>
        </g>
        <g id="Groupe_2009" data-name="Groupe 2009" transform="translate(22.016)">
          <rect id="Rectangle_862" data-name="Rectangle 862" width="24.99" height="5.129" fill="#777"/>
        </g>
        <g id="Groupe_2010" data-name="Groupe 2010" transform="translate(47.006)">
          <rect id="Rectangle_863" data-name="Rectangle 863" width="21.089" height="5.129" fill="#969696"/>
        </g>
        <g id="Groupe_2011" data-name="Groupe 2011" transform="translate(0 9.549)">
          <rect id="Rectangle_864" data-name="Rectangle 864" width="22.016" height="10.476" fill="#676868"/>
        </g>
        <g id="Groupe_2012" data-name="Groupe 2012" transform="translate(47.006 9.549)">
          <rect id="Rectangle_865" data-name="Rectangle 865" width="21.089" height="10.476" fill="#969696"/>
        </g>
        <g id="Groupe_2013" data-name="Groupe 2013" transform="translate(22.016 9.549)">
          <rect id="Rectangle_866" data-name="Rectangle 866" width="24.99" height="10.476" fill="#777"/>
        </g>
      </g>
      <g id="Groupe_2021" data-name="Groupe 2021" transform="translate(1.884 72.184)">
        <g id="Groupe_2016" data-name="Groupe 2016">
          <g id="Groupe_2015" data-name="Groupe 2015">
            <rect id="Rectangle_867" data-name="Rectangle 867" width="22.016" height="10.585" fill="#035068"/>
          </g>
        </g>
        <g id="Groupe_2018" data-name="Groupe 2018" transform="translate(47.006)">
          <g id="Groupe_2017" data-name="Groupe 2017">
            <rect id="Rectangle_868" data-name="Rectangle 868" width="21.089" height="10.585" fill="#096784"/>
          </g>
        </g>
        <g id="Groupe_2020" data-name="Groupe 2020" transform="translate(22.016)">
          <g id="Groupe_2019" data-name="Groupe 2019">
            <rect id="Rectangle_869" data-name="Rectangle 869" width="24.99" height="10.585" fill="#055b7c"/>
          </g>
        </g>
      </g>
      <g id="Groupe_2083" data-name="Groupe 2083">
        <g id="Groupe_2032" data-name="Groupe 2032" transform="translate(1.884 20.948)">
          <g id="Groupe_2023" data-name="Groupe 2023">
            <g id="Groupe_2022" data-name="Groupe 2022">
              <rect id="Rectangle_870" data-name="Rectangle 870" width="68.095" height="51.235" fill="#303030"/>
            </g>
          </g>
          <g id="Groupe_2026" data-name="Groupe 2026" transform="translate(22.016 54.673)">
            <g id="Groupe_2025" data-name="Groupe 2025">
              <g id="Groupe_2024" data-name="Groupe 2024">
                <rect id="Rectangle_871" data-name="Rectangle 871" width="24.99" height="7.148" fill="#777"/>
              </g>
            </g>
          </g>
          <g id="Groupe_2031" data-name="Groupe 2031" transform="translate(5.898 61.821)">
            <g id="Groupe_2028" data-name="Groupe 2028">
              <g id="Groupe_2027" data-name="Groupe 2027">
                <path id="Tracé_3116" data-name="Tracé 3116" d="M927.886,429.313v8.949a6.766,6.766,0,0,0,13.532,0v-8.949c0-.15-.034-.289-.044-.436H927.93C927.92,429.024,927.886,429.164,927.886,429.313Z" transform="translate(-927.886 -428.877)" fill="#7c7c7c"/>
              </g>
            </g>
            <g id="Groupe_2030" data-name="Groupe 2030" transform="translate(42.769)">
              <g id="Groupe_2029" data-name="Groupe 2029">
                <path id="Tracé_3117" data-name="Tracé 3117" d="M997.412,428.877c-.01.147-.044.287-.044.436v8.949a6.766,6.766,0,0,0,13.531,0v-8.949c0-.15-.034-.289-.044-.436Z" transform="translate(-997.368 -428.877)" fill="#7c7c7c"/>
              </g>
            </g>
          </g>
        </g>
        <g id="Groupe_2050" data-name="Groupe 2050">
          <g id="Groupe_2034" data-name="Groupe 2034" transform="translate(0.96 71.261)">
            <g id="Groupe_2033" data-name="Groupe 2033">
              <path id="Tracé_3118" data-name="Tracé 3118" d="M985.824,422.612h-68.1a.923.923,0,0,1-.923-.923V411.1a.923.923,0,0,1,.923-.923h68.1a.923.923,0,0,1,.923.923v10.585A.923.923,0,0,1,985.824,422.612Zm-67.172-1.847H984.9v-8.739H918.652Z" transform="translate(-916.805 -410.18)" fill="#303030"/>
            </g>
          </g>
          <g id="Groupe_2041" data-name="Groupe 2041">
            <g id="Groupe_2035" data-name="Groupe 2035" transform="translate(0.96)">
              <path id="Tracé_3119" data-name="Tracé 3119" d="M985.824,301.386h-68.1a.924.924,0,0,1-.923-.923v-5.129a.923.923,0,0,1,.923-.923h68.1a.923.923,0,0,1,.923.923v5.129A.924.924,0,0,1,985.824,301.386Zm-67.172-1.847H984.9v-3.283H918.652Z" transform="translate(-916.805 -294.41)" fill="#303030"/>
            </g>
            <g id="Groupe_2039" data-name="Groupe 2039" transform="translate(0.96 9.549)">
              <g id="Groupe_2036" data-name="Groupe 2036">
                <path id="Tracé_3120" data-name="Tracé 3120" d="M985.824,322.246h-68.1a.924.924,0,0,1-.923-.923V310.846a.924.924,0,0,1,.923-.923h68.1a.924.924,0,0,1,.923.923v10.476A.924.924,0,0,1,985.824,322.246ZM918.652,320.4H984.9v-8.63H918.652Z" transform="translate(-916.805 -309.923)" fill="#303030"/>
              </g>
              <g id="Groupe_2038" data-name="Groupe 2038" transform="translate(0 10.476)">
                <g id="Groupe_2037" data-name="Groupe 2037">
                  <path id="Tracé_3121" data-name="Tracé 3121" d="M985.824,380.025h-68.1a.923.923,0,0,1-.923-.923V327.866a.923.923,0,0,1,.923-.923h68.1a.923.923,0,0,1,.923.923V379.1A.923.923,0,0,1,985.824,380.025Zm-67.172-1.847H984.9V328.79H918.652Z" transform="translate(-916.805 -326.943)" fill="#303030"/>
                </g>
              </g>
            </g>
            <g id="Groupe_2040" data-name="Groupe 2040" transform="translate(0 4.168)">
              <rect id="Rectangle_872" data-name="Rectangle 872" width="71.863" height="8.188" rx="3.061" fill="#303030"/>
            </g>
          </g>
          <g id="Groupe_2044" data-name="Groupe 2044" transform="translate(22.976 74.698)">
            <g id="Groupe_2043" data-name="Groupe 2043">
              <g id="Groupe_2042" data-name="Groupe 2042">
                <path id="Tracé_3122" data-name="Tracé 3122" d="M978.486,424.759H953.5a.923.923,0,0,1-.923-.923v-7.148a.923.923,0,0,1,.923-.923h24.991a.923.923,0,0,1,.923.923v7.148A.923.923,0,0,1,978.486,424.759Zm-24.067-1.847h23.144v-5.3H954.419Z" transform="translate(-952.572 -415.765)" fill="#303030"/>
              </g>
            </g>
          </g>
          <g id="Groupe_2049" data-name="Groupe 2049" transform="translate(6.858 81.846)">
            <g id="Groupe_2046" data-name="Groupe 2046">
              <g id="Groupe_2045" data-name="Groupe 2045">
                <path id="Tracé_3123" data-name="Tracé 3123" d="M934.076,445.375a7.7,7.7,0,0,1-7.689-7.689v-8.949a2.777,2.777,0,0,1,.031-.381c.005-.038.012-.076.014-.116a.924.924,0,0,1,.922-.863H940.8a.924.924,0,0,1,.921.863c0,.039.009.078.013.116a2.675,2.675,0,0,1,.032.381v8.949A7.7,7.7,0,0,1,934.076,445.375Zm-5.842-16.151v8.462a5.842,5.842,0,1,0,11.685,0v-8.462Z" transform="translate(-926.387 -427.377)" fill="#303030"/>
              </g>
            </g>
            <g id="Groupe_2048" data-name="Groupe 2048" transform="translate(42.767)">
              <g id="Groupe_2047" data-name="Groupe 2047">
                <path id="Tracé_3124" data-name="Tracé 3124" d="M1003.556,445.375a7.7,7.7,0,0,1-7.689-7.689v-8.949a2.777,2.777,0,0,1,.033-.382c.005-.038.011-.076.014-.114a.924.924,0,0,1,.921-.863h13.444a.923.923,0,0,1,.921.863c0,.039.009.078.014.116a2.786,2.786,0,0,1,.032.381v8.949A7.7,7.7,0,0,1,1003.556,445.375Zm-5.843-16.151v8.462a5.843,5.843,0,0,0,11.686,0v-8.462Z" transform="translate(-995.867 -427.377)" fill="#303030"/>
              </g>
            </g>
          </g>
        </g>
        <g id="Groupe_2051" data-name="Groupe 2051" transform="translate(30.752 15.55)">
          <path id="Tracé_3125" data-name="Tracé 3125" d="M977.041,321.519H966.127a.923.923,0,0,1,0-1.847h10.914a.923.923,0,0,1,0,1.847Z" transform="translate(-965.204 -319.672)" fill="#303030"/>
        </g>
        <g id="Groupe_2056" data-name="Groupe 2056" transform="translate(7.176 25.368)">
          <g id="Groupe_2053" data-name="Groupe 2053">
            <g id="Groupe_2052" data-name="Groupe 2052">
              <rect id="Rectangle_873" data-name="Rectangle 873" width="29.955" height="46.816" fill="#dd9976"/>
            </g>
          </g>
          <g id="Groupe_2055" data-name="Groupe 2055" transform="translate(12.222)">
            <g id="Groupe_2054" data-name="Groupe 2054">
              <rect id="Rectangle_874" data-name="Rectangle 874" width="5.511" height="8.512" fill="#f9b678"/>
            </g>
          </g>
        </g>
        <g id="Groupe_2061" data-name="Groupe 2061" transform="translate(40.733 36.554)">
          <g id="Groupe_2058" data-name="Groupe 2058">
            <g id="Groupe_2057" data-name="Groupe 2057">
              <rect id="Rectangle_875" data-name="Rectangle 875" width="22.589" height="35.63" fill="#dd916b"/>
            </g>
          </g>
          <g id="Groupe_2060" data-name="Groupe 2060" transform="translate(8.539)">
            <g id="Groupe_2059" data-name="Groupe 2059">
              <rect id="Rectangle_876" data-name="Rectangle 876" width="5.511" height="8.512" fill="#f9b678"/>
            </g>
          </g>
        </g>
        <g id="Groupe_2066" data-name="Groupe 2066" transform="translate(6.253 24.445)">
          <g id="Groupe_2063" data-name="Groupe 2063">
            <g id="Groupe_2062" data-name="Groupe 2062">
              <path id="Tracé_3126" data-name="Tracé 3126" d="M956.282,382.785H926.326a.923.923,0,0,1-.923-.923V335.046a.923.923,0,0,1,.923-.923h29.956a.923.923,0,0,1,.923.923v46.816A.923.923,0,0,1,956.282,382.785Zm-29.032-1.847h28.109V335.97H927.25Z" transform="translate(-925.403 -334.123)" fill="#303030"/>
            </g>
          </g>
          <g id="Groupe_2065" data-name="Groupe 2065" transform="translate(12.223)">
            <g id="Groupe_2064" data-name="Groupe 2064">
              <path id="Tracé_3127" data-name="Tracé 3127" d="M951.694,344.482h-5.511a.924.924,0,0,1-.923-.923v-8.512a.923.923,0,0,1,.923-.923h5.511a.923.923,0,0,1,.923.923v8.512A.924.924,0,0,1,951.694,344.482Zm-4.588-1.847h3.664V335.97h-3.664Z" transform="translate(-945.26 -334.123)" fill="#303030"/>
            </g>
          </g>
        </g>
        <g id="Groupe_2071" data-name="Groupe 2071" transform="translate(39.809 35.63)">
          <g id="Groupe_2068" data-name="Groupe 2068">
            <g id="Groupe_2067" data-name="Groupe 2067">
              <path id="Tracé_3128" data-name="Tracé 3128" d="M1003.432,389.772H980.842a.923.923,0,0,1-.923-.923v-35.63a.923.923,0,0,1,.923-.923h22.589a.923.923,0,0,1,.923.923v35.63A.923.923,0,0,1,1003.432,389.772Zm-21.666-1.847h20.743V354.142H981.766Z" transform="translate(-979.919 -352.295)" fill="#303030"/>
            </g>
          </g>
          <g id="Groupe_2070" data-name="Groupe 2070" transform="translate(8.539)">
            <g id="Groupe_2069" data-name="Groupe 2069">
              <path id="Tracé_3129" data-name="Tracé 3129" d="M1000.226,362.653h-5.511a.923.923,0,0,1-.923-.923v-8.512a.923.923,0,0,1,.923-.923h5.511a.923.923,0,0,1,.923.923v8.512A.923.923,0,0,1,1000.226,362.653Zm-4.588-1.846H999.3v-6.665h-3.664Z" transform="translate(-993.792 -352.295)" fill="#303030"/>
            </g>
          </g>
        </g>
        <g id="Groupe_2082" data-name="Groupe 2082" transform="translate(22.458 49.49)">
          <g id="Groupe_2076" data-name="Groupe 2076" transform="translate(0.924 0.923)">
            <g id="Groupe_2073" data-name="Groupe 2073">
              <g id="Groupe_2072" data-name="Groupe 2072">
                <rect id="Rectangle_877" data-name="Rectangle 877" width="21.444" height="21.771" fill="#ce8261"/>
              </g>
            </g>
            <g id="Groupe_2075" data-name="Groupe 2075" transform="translate(8.43)">
              <g id="Groupe_2074" data-name="Groupe 2074">
                <rect id="Rectangle_878" data-name="Rectangle 878" width="4.583" height="6.22" fill="#ffa039"/>
              </g>
            </g>
          </g>
          <g id="Groupe_2081" data-name="Groupe 2081">
            <g id="Groupe_2078" data-name="Groupe 2078">
              <g id="Groupe_2077" data-name="Groupe 2077">
                <path id="Tracé_3130" data-name="Tracé 3130" d="M974.1,398.429H952.653a.923.923,0,0,1-.923-.923V375.734a.923.923,0,0,1,.923-.923H974.1a.923.923,0,0,1,.923.923v21.771A.923.923,0,0,1,974.1,398.429Zm-20.521-1.847h19.6V376.658h-19.6Z" transform="translate(-951.73 -374.811)" fill="#303030"/>
              </g>
            </g>
            <g id="Groupe_2080" data-name="Groupe 2080" transform="translate(8.43)">
              <g id="Groupe_2079" data-name="Groupe 2079">
                <path id="Tracé_3131" data-name="Tracé 3131" d="M970.933,382.878h-4.583a.923.923,0,0,1-.923-.923v-6.22a.923.923,0,0,1,.923-.923h4.583a.923.923,0,0,1,.923.923v6.22A.923.923,0,0,1,970.933,382.878Zm-3.66-1.847h2.737v-4.373h-2.737Z" transform="translate(-965.426 -374.811)" fill="#303030"/>
              </g>
            </g>
          </g>
        </g>
      </g>
    </g>
  </g>
</svg>
