<svg xmlns="http://www.w3.org/2000/svg" width="1005.597" height="422.779" viewBox="0 0 1005.597 422.779">
  <g id="Groupe_2832" data-name="Groupe 2832" transform="translate(-122.151 -413.476)">
    <path id="Tracé_5376" data-name="Tracé 5376" d="M2198.139,625.441h993.127a6.269,6.269,0,0,1,6.25,6.25V649.88a6.269,6.269,0,0,1-6.25,6.25H2198.139a6.242,6.242,0,0,1-6.219-6.25V631.691a6.242,6.242,0,0,1,6.219-6.25Z" transform="translate(-2069.769 180.124)" fill="#fff" fill-rule="evenodd"/>
    <path id="Tracé_5377" data-name="Tracé 5377" d="M3210.848,501.611c14,0,25.35,24.752,25.35,55.285s-11.349,55.285-25.35,55.285h-32.654c-13.974,0-25.314-24.752-25.314-55.285s11.34-55.285,25.314-55.285Z" transform="translate(-2172.669 193.384)" fill="#211f1e" fill-rule="evenodd"/>
    <path id="Tracé_5378" data-name="Tracé 5378" d="M2805.479,501.611c14,0,25.346,24.752,25.346,55.285s-11.345,55.285-25.346,55.285h-32.658c-14,0-25.345-24.752-25.345-55.285s11.344-55.285,25.345-55.285Z" transform="translate(-2129.258 193.384)" fill="#211f1e" fill-rule="evenodd"/>
    <path id="Tracé_5379" data-name="Tracé 5379" d="M2842.885,444.456V554.745c0,7.188,7.594,15.814,14.907,15.814h354.337c8.126,0,15.84-10.251,15.84-18.283V444.456Z" transform="translate(-2139.475 199.504)" fill="#211f1e" fill-rule="evenodd"/>
    <path id="Tracé_5380" data-name="Tracé 5380" d="M2783.448,538.1h-49.941v7.626h-31.1V538.1H2475.77V410.156h385.058V545.728h-77.38V538.1Z" transform="translate(-2100.164 203.177)" fill="#211f1e" fill-rule="evenodd"/>
    <path id="Tracé_5381" data-name="Tracé 5381" d="M3178.168,352.3h14.6a2.417,2.417,0,0,1,2.438,2.406v25.627a2.437,2.437,0,0,1-2.438,2.406h-14.6a2.437,2.437,0,0,1-2.437-2.406V354.707a2.417,2.417,0,0,1,2.438-2.406Z" transform="translate(-2175.117 209.372)" fill="#2f3c58" fill-rule="evenodd"/>
    <path id="Tracé_5382" data-name="Tracé 5382" d="M3180.768,352.3h12.653a2.1,2.1,0,0,1,2.1,2.094v26.252a2.1,2.1,0,0,1-2.1,2.094h-12.653a2.1,2.1,0,0,1-2.1-2.094V354.395a2.1,2.1,0,0,1,2.1-2.094Z" transform="translate(-2175.431 209.372)" fill="#232223" fill-rule="evenodd"/>
    <path id="Tracé_5383" data-name="Tracé 5383" d="M3189.012,391.8v-5.407h-5.4V391.8Z" transform="translate(-2175.96 205.722)" fill="#2f3c58" fill-rule="evenodd"/>
    <path id="Tracé_5384" data-name="Tracé 5384" d="M3189.263,391.8v-5.407h-3.313V391.8Z" transform="translate(-2176.211 205.722)" fill="#232223" fill-rule="evenodd"/>
    <path id="Tracé_5385" data-name="Tracé 5385" d="M2821.71,208.871h210.229V419.229h-124v87.6H2821.71V208.871Z" transform="translate(-2137.208 224.731)" fill="#b7d3d0" fill-rule="evenodd"/>
    <path id="Tracé_5386" data-name="Tracé 5386" d="M3041.44,208.871h14.028V419.229H3041.44V208.871Z" transform="translate(-2160.736 224.731)" fill="#5b8689" fill-rule="evenodd"/>
    <path id="Tracé_5387" data-name="Tracé 5387" d="M2990.728,206.457H2436.85c0-6.719,8.594-20.126,20.72-20.126h512.442c12.126,0,20.716,10.97,20.716,20.126Z" transform="translate(-2095.997 227.144)" fill="#5b8689" fill-rule="evenodd"/>
    <path id="Tracé_5388" data-name="Tracé 5388" d="M2821.71,208.871h14.032V506.829H2821.71V208.871Z" transform="translate(-2137.208 224.731)" fill="#5b8689" fill-rule="evenodd"/>
    <path id="Tracé_5389" data-name="Tracé 5389" d="M2780.5,208.871H2436.85V506.829h80.568c6-28.158,25.158-48.753,47.847-48.753s41.847,20.6,47.847,48.753H2780.5V208.871Z" transform="translate(-2095.997 224.731)" fill="#fff" fill-rule="evenodd"/>
    <path id="Tracé_5390" data-name="Tracé 5390" d="M2780.5,504.733H2598.955c-8.844-11.063-20.689-17.814-33.69-17.814s-24.845,6.75-33.69,17.814H2436.85v-26.5H2780.5v26.5Z" transform="translate(-2095.997 195.888)" fill="#8cb4b4" fill-rule="evenodd"/>
    <path id="Tracé_5391" data-name="Tracé 5391" d="M2780.5,467.9H2436.85v-9.126H2780.5V467.9Z" transform="translate(-2095.997 197.971)" fill="#8cb4b4" fill-rule="evenodd"/>
    <path id="Tracé_5392" data-name="Tracé 5392" d="M2780.5,206.457H2436.85c0-6.719,8.594-20.126,20.72-20.126h302.208c12.157,0,20.72,10.97,20.72,20.126Z" transform="translate(-2095.997 227.144)" fill="#8cb4b4" fill-rule="evenodd"/>
    <path id="Tracé_5393" data-name="Tracé 5393" d="M2820.469,208.871h-10.344V506.829h10.344V208.871Z" transform="translate(-2135.967 224.731)" fill="#8cb4b4" fill-rule="evenodd"/>
    <path id="Tracé_5394" data-name="Tracé 5394" d="M3017.1,284.611h40.19c8.715,0,22.252,5.688,27.35,12.751l54.254,75.349,88.56,33.19c7.313,2.75,12.322,12.063,12.322,19.876V514.94H3025.757c-6-28.158-25.126-48.753-47.816-48.753-22.72,0-41.847,20.6-47.847,48.753H2848V284.611Z" transform="translate(-2140.022 216.621)" fill="#e0001e" fill-rule="evenodd"/>
    <path id="Tracé_5395" data-name="Tracé 5395" d="M3097.4,442.706h169.083v89.162H3097.4V442.706Z" transform="translate(-2166.729 199.692)" fill="#d8001c" fill-rule="evenodd"/>
    <path id="Tracé_5396" data-name="Tracé 5396" d="M3072.989,416.466h169.074l-88.56-33.19H2984.425l88.564,33.19Z" transform="translate(-2154.631 206.055)" fill="#eb0725" fill-rule="evenodd"/>
    <path id="Tracé_5397" data-name="Tracé 5397" d="M2927.62,297.246h162.1l51.566,73.411h-162.1l-51.566-73.411Z" transform="translate(-2148.549 215.268)" fill="#232223" fill-rule="evenodd"/>
    <path id="Tracé_5398" data-name="Tracé 5398" d="M2931.365,299.206l49.128,69.942h157.854l-49.128-69.942Z" transform="translate(-2148.949 215.058)" fill="#346983" fill-rule="evenodd"/>
    <path id="Tracé_5399" data-name="Tracé 5399" d="M3042.272,369.148h3.938l40.378-69.942h-3.938l-40.378,69.942Zm-57.785-.969.688.969h22.939l40.374-69.942H3024.3l-39.815,68.974Zm-9.407-13.407,6.094,8.688,37.1-64.254h-11.094l-32.1,55.566Z" transform="translate(-2153.631 215.058)" fill="#528ea4" fill-rule="evenodd"/>
    <path id="Tracé_5400" data-name="Tracé 5400" d="M2848,284.611h40.221c8.719,0,22.22,5.688,27.314,12.751l54.285,75.349,88.564,33.19c7.286,2.75,12.313,12.063,12.313,19.876V514.94h-44.936c-6-28.158-25.126-48.753-47.816-48.753-22.72,0-41.847,20.6-47.847,48.753H2848V284.611Z" transform="translate(-2140.022 216.621)" fill="#f92549" fill-rule="evenodd"/>
    <path id="Tracé_5401" data-name="Tracé 5401" d="M2891.71,296.54h-34.971V507.555h69.13c4.75-19.439,18.189-38.284,37.44-45.316V374.108l-47.91-66.5c-6.719-9.344-12.251-11.063-23.689-11.063Zm0-1.219c11.813,0,17.72,1.906,24.689,11.563l48.128,66.848v89.381c-19.845,7-32.971,25.721-37.721,45.659H2855.52V295.321Z" transform="translate(-2140.828 215.474)" fill="#d8001c"/>
    <path id="Tracé_5402" data-name="Tracé 5402" d="M2860.63,304.736H2893.6c13.22,0,17.376,3.469,22.408,10.469l44.5,61.786-99.882.063V304.736Z" transform="translate(-2141.375 214.466)" fill="#232223" fill-rule="evenodd"/>
    <path id="Tracé_5403" data-name="Tracé 5403" d="M2862.555,306.661V375.51l94.788-.031-42.534-59.067a27.035,27.035,0,0,0-5.281-5.875c-4.406-3.438-10.344-3.875-15.72-3.875Z" transform="translate(-2141.582 214.259)" fill="#66a0b4" fill-rule="evenodd"/>
    <path id="Tracé_5404" data-name="Tracé 5404" d="M2931.4,375.478h3.938l6.625-21.376-2.781-3.844-7.782,25.22Zm-58.348.031h24.189l18.064-58.41-.5-.688a27.035,27.035,0,0,0-5.281-5.875c-4.25-3.313-9.938-3.844-15.157-3.875l-21.314,68.849Zm-10.5-21.47v21.47h4.469l21.283-68.849h-11.094l-14.657,47.378Z" transform="translate(-2141.582 214.259)" fill="#8dc4d3" fill-rule="evenodd"/>
    <path id="Tracé_5405" data-name="Tracé 5405" d="M3151.628,469.109h71.907a1.668,1.668,0,0,1,1.661,1.656v3.219a1.668,1.668,0,0,1-1.661,1.656h-71.907a1.692,1.692,0,0,1-1.688-1.656v-3.219a1.692,1.692,0,0,1,1.688-1.656Zm0,14.157h71.907a1.668,1.668,0,0,1,1.661,1.656v3.219a1.668,1.668,0,0,1-1.661,1.656h-71.907a1.692,1.692,0,0,1-1.688-1.656v-3.219a1.692,1.692,0,0,1,1.688-1.656Zm0,14.157h71.907a1.675,1.675,0,0,1,1.661,1.688V502.3a1.675,1.675,0,0,1-1.661,1.688h-71.907a1.7,1.7,0,0,1-1.688-1.688v-3.188a1.7,1.7,0,0,1,1.688-1.688Zm0-42.5h71.907a1.675,1.675,0,0,1,1.661,1.688V459.8a1.675,1.675,0,0,1-1.661,1.688h-71.907a1.7,1.7,0,0,1-1.688-1.688v-3.188a1.7,1.7,0,0,1,1.688-1.688Z" transform="translate(-2172.355 198.384)" fill="#5e1f22" fill-rule="evenodd"/>
    <path id="Tracé_5406" data-name="Tracé 5406" d="M3083.42,448.8h41.324a6.864,6.864,0,0,1,6.84,6.844v46.941a6.885,6.885,0,0,1-6.84,6.844H3083.42a6.879,6.879,0,0,1-6.84-6.844V455.64a6.858,6.858,0,0,1,6.84-6.844Z" transform="translate(-2164.499 199.039)" fill="#282b35" fill-rule="evenodd"/>
    <path id="Tracé_5407" data-name="Tracé 5407" d="M3096.07,448.8h31.761a5.267,5.267,0,0,1,5.277,5.25v50.1a5.294,5.294,0,0,1-5.277,5.282H3096.07a5.289,5.289,0,0,1-5.25-5.282v-50.1a5.262,5.262,0,0,1,5.25-5.25Z" transform="translate(-2166.024 199.039)" fill="#232223" fill-rule="evenodd"/>
    <path id="Tracé_5408" data-name="Tracé 5408" d="M3085.006,455.446h39.44a2.382,2.382,0,0,1,2.384,2.375V472.26a2.382,2.382,0,0,1-2.384,2.375h-39.44a2.367,2.367,0,0,1-2.366-2.375V457.821a2.367,2.367,0,0,1,2.366-2.375Z" transform="translate(-2165.148 198.327)" fill="#fdba65" fill-rule="evenodd"/>
    <path id="Tracé_5409" data-name="Tracé 5409" d="M3090.575,455.446h34.467a2.382,2.382,0,0,1,2.384,2.375V472.26a2.382,2.382,0,0,1-2.384,2.375h-34.467a2.374,2.374,0,0,1-2.375-2.375V457.821a2.374,2.374,0,0,1,2.375-2.375Z" transform="translate(-2165.744 198.327)" fill="#fe991f" fill-rule="evenodd"/>
    <path id="Tracé_5410" data-name="Tracé 5410" d="M3085.765,482.221h37.94a3.144,3.144,0,0,1,3.125,3.156v19a3.137,3.137,0,0,1-3.125,3.125h-37.94a3.132,3.132,0,0,1-3.125-3.125v-19a3.138,3.138,0,0,1,3.125-3.156Z" transform="translate(-2165.148 195.46)" fill="#fff" fill-rule="evenodd"/>
    <path id="Tracé_5411" data-name="Tracé 5411" d="M3091.352,482.221H3124.3a3.144,3.144,0,0,1,3.125,3.156v19a3.137,3.137,0,0,1-3.125,3.125h-32.949a3.143,3.143,0,0,1-3.152-3.125v-19a3.15,3.15,0,0,1,3.152-3.156Z" transform="translate(-2165.744 195.46)" fill="#dbde7d" fill-rule="evenodd"/>
    <path id="Tracé_5412" data-name="Tracé 5412" d="M3252.53,448.8h31.743a5.262,5.262,0,0,1,5.25,5.25v50.1a5.289,5.289,0,0,1-5.25,5.282H3252.53a5.283,5.283,0,0,1-5.25-5.282v-50.1a5.256,5.256,0,0,1,5.25-5.25Z" transform="translate(-2182.778 199.039)" fill="#232223" fill-rule="evenodd"/>
    <path id="Tracé_5413" data-name="Tracé 5413" d="M3255.7,455.446h34.065a2.4,2.4,0,0,1,2.4,2.375V472.26a2.4,2.4,0,0,1-2.4,2.375H3255.7a2.4,2.4,0,0,1-2.411-2.375V457.821a2.4,2.4,0,0,1,2.411-2.375Z" transform="translate(-2183.422 198.327)" fill="#fe991f" fill-rule="evenodd"/>
    <path id="Tracé_5414" data-name="Tracé 5414" d="M3256.451,482.221h32.565a3.167,3.167,0,0,1,3.152,3.156v19a3.161,3.161,0,0,1-3.152,3.125h-32.565a3.145,3.145,0,0,1-3.161-3.125v-19a3.152,3.152,0,0,1,3.161-3.156Z" transform="translate(-2183.422 195.46)" fill="#dbde7d" fill-rule="evenodd"/>
    <path id="Tracé_5415" data-name="Tracé 5415" d="M3043.477,527.616h232.172a3.145,3.145,0,0,1,3.161,3.125v19a3.171,3.171,0,0,1-3.161,3.156H3043.477a3.168,3.168,0,0,1-3.156-3.156v-19a3.141,3.141,0,0,1,3.156-3.125Z" transform="translate(-2160.616 190.599)" fill="#282b35" fill-rule="evenodd"/>
    <path id="Tracé_5416" data-name="Tracé 5416" d="M3111.275,527.616h171.637a3.145,3.145,0,0,1,3.161,3.125v19a3.171,3.171,0,0,1-3.161,3.156H3111.275a3.159,3.159,0,0,1-3.125-3.156v-19a3.132,3.132,0,0,1,3.125-3.125Z" transform="translate(-2167.88 190.599)" fill="#232223" fill-rule="evenodd"/>
    <path id="Tracé_5417" data-name="Tracé 5417" d="M2861.818,408.021h19.72a1.187,1.187,0,0,1,1.188,1.188v7.219a1.187,1.187,0,0,1-1.188,1.188h-19.72a1.187,1.187,0,0,1-1.188-1.188v-7.219a1.187,1.187,0,0,1,1.188-1.188Z" transform="translate(-2141.375 203.406)" fill="#244e4b" fill-rule="evenodd"/>
    <path id="Tracé_5418" data-name="Tracé 5418" d="M2862.85,409.351h17.97a.76.76,0,0,1,.75.75v4.469a.76.76,0,0,1-.75.75h-17.97a.76.76,0,0,1-.75-.75V410.1a.76.76,0,0,1,.75-.75Z" transform="translate(-2141.532 203.263)" fill="#233533" fill-rule="evenodd"/>
    <path id="Tracé_5419" data-name="Tracé 5419" d="M2862.569,409.351H2881.1a.454.454,0,0,1,.469.438v2.719a.454.454,0,0,1-.469.438h-18.532a.454.454,0,0,1-.469-.438v-2.719a.454.454,0,0,1,.469-.438Z" transform="translate(-2141.532 203.263)" fill="#fff" fill-rule="evenodd"/>
    <path id="Tracé_5420" data-name="Tracé 5420" d="M2943.6,352.3H2958.2a2.414,2.414,0,0,1,2.438,2.406v25.627a2.434,2.434,0,0,1-2.438,2.406H2943.6a2.434,2.434,0,0,1-2.437-2.406V354.707a2.414,2.414,0,0,1,2.438-2.406Z" transform="translate(-2149.999 209.372)" fill="#2f3c58" fill-rule="evenodd"/>
    <path id="Tracé_5421" data-name="Tracé 5421" d="M2946.2,352.3h12.657a2.094,2.094,0,0,1,2.094,2.094v26.252a2.094,2.094,0,0,1-2.094,2.094H2946.2a2.094,2.094,0,0,1-2.094-2.094V354.395a2.094,2.094,0,0,1,2.094-2.094Z" transform="translate(-2150.314 209.372)" fill="#232223" fill-rule="evenodd"/>
    <path id="Tracé_5422" data-name="Tracé 5422" d="M2949.04,395.392h20.845a1.787,1.787,0,0,0,1.781-1.813h0a1.78,1.78,0,0,0-1.781-1.781h-15.438v-5.407h-5.407v9Z" transform="translate(-2150.842 205.722)" fill="#2f3c58" fill-rule="evenodd"/>
    <path id="Tracé_5423" data-name="Tracé 5423" d="M2951.385,395.392h18.751a1.788,1.788,0,0,0,1.781-1.813h0a1.781,1.781,0,0,0-1.781-1.781H2954.7v-5.407h-3.313v9Z" transform="translate(-2151.093 205.722)" fill="#232223" fill-rule="evenodd"/>
    <path id="Tracé_5424" data-name="Tracé 5424" d="M3005.819,501.611c14,0,25.346,24.752,25.346,55.285s-11.344,55.285-25.346,55.285H2973.16c-14,0-25.345-24.752-25.345-55.285s11.345-55.285,25.345-55.285Z" transform="translate(-2150.711 193.384)" fill="#232223" fill-rule="evenodd"/>
    <path id="Tracé_5425" data-name="Tracé 5425" d="M2973.16,612.181c13.97,0,25.346-24.814,25.346-55.285,0-30.44-11.376-55.285-25.346-55.285-13.938,0-25.345,24.845-25.345,55.285,0,30.471,11.407,55.285,25.345,55.285Z" transform="translate(-2150.711 193.384)" fill="#282b35" fill-rule="evenodd"/>
    <path id="Tracé_5426" data-name="Tracé 5426" d="M2974.457,594.5c8,0,14.532-15.814,14.532-35.19s-6.532-35.159-14.532-35.159-14.532,15.782-14.532,35.159,6.531,35.19,14.532,35.19Z" transform="translate(-2152.008 190.97)" fill="#fff" fill-rule="evenodd"/>
    <path id="Tracé_5427" data-name="Tracé 5427" d="M2974.63,591.415c7.219,0,13.095-14.22,13.095-31.69s-5.875-31.69-13.095-31.69-13.095,14.22-13.095,31.69,5.875,31.69,13.095,31.69Z" transform="translate(-2152.18 190.554)" fill="#8cb4b4" fill-rule="evenodd"/>
    <path id="Tracé_5428" data-name="Tracé 5428" d="M2977.642,583.3c5.125,0,9.282-10.094,9.282-22.47s-4.156-22.47-9.282-22.47c-5.094,0-9.282,10.094-9.282,22.47s4.188,22.47,9.282,22.47Z" transform="translate(-2152.911 189.449)" fill="#3c656b" fill-rule="evenodd"/>
    <path id="Tracé_5429" data-name="Tracé 5429" d="M2977.9,544.136c3.969,0,7.157,7.751,7.157,17.314s-5.562,1.938-9.5,1.938c-3.969,0-4.782,7.626-4.782-1.938s3.188-17.314,7.125-17.314Z" transform="translate(-2153.169 188.83)" fill="#fff" fill-rule="evenodd"/>
    <path id="Tracé_5430" data-name="Tracé 5430" d="M2592.963,501.611c14,0,25.345,24.752,25.345,55.285s-11.345,55.285-25.345,55.285h-32.627c-14,0-25.345-24.752-25.345-55.285s11.344-55.285,25.345-55.285Z" transform="translate(-2106.505 193.384)" fill="#232223" fill-rule="evenodd"/>
    <path id="Tracé_5431" data-name="Tracé 5431" d="M2560.335,612.181c13.939,0,25.314-24.814,25.314-55.285,0-30.44-11.376-55.285-25.314-55.285-13.97,0-25.345,24.845-25.345,55.285,0,30.471,11.376,55.285,25.345,55.285Z" transform="translate(-2106.505 193.384)" fill="#282b35" fill-rule="evenodd"/>
    <path id="Tracé_5432" data-name="Tracé 5432" d="M2561.632,594.5c8,0,14.5-15.814,14.5-35.19s-6.5-35.159-14.5-35.159S2547.1,539.933,2547.1,559.31s6.532,35.19,14.532,35.19Z" transform="translate(-2107.802 190.97)" fill="#fff" fill-rule="evenodd"/>
    <path id="Tracé_5433" data-name="Tracé 5433" d="M2561.8,591.415c7.188,0,13.063-14.22,13.063-31.69s-5.875-31.69-13.063-31.69c-7.219,0-13.095,14.22-13.095,31.69s5.875,31.69,13.095,31.69Z" transform="translate(-2107.974 190.554)" fill="#8cb4b4" fill-rule="evenodd"/>
    <path id="Tracé_5434" data-name="Tracé 5434" d="M2564.817,583.3c5.094,0,9.282-10.094,9.282-22.47s-4.188-22.47-9.282-22.47c-5.125,0-9.282,10.094-9.282,22.47s4.156,22.47,9.282,22.47Z" transform="translate(-2108.705 189.449)" fill="#3c656b" fill-rule="evenodd"/>
    <path id="Tracé_5435" data-name="Tracé 5435" d="M2565.072,544.136c3.938,0,7.125,7.751,7.125,17.314s-5.563,1.938-9.5,1.938-4.781,7.626-4.781-1.938,3.188-17.314,7.157-17.314Z" transform="translate(-2108.96 188.83)" fill="#fff" fill-rule="evenodd"/>
    <path id="Tracé_5436" data-name="Tracé 5436" d="M2380.5,616.412h116.414V541.126H2380.5v75.286Z" transform="translate(-2089.962 189.153)" fill="#fe991f" fill-rule="evenodd"/>
    <path id="Tracé_5437" data-name="Tracé 5437" d="M2379.406,540.031h38.971l-9.125-9.126H2370.28l9.125,9.126Z" transform="translate(-2088.868 190.247)" fill="#ec5501" fill-rule="evenodd"/>
    <path id="Tracé_5438" data-name="Tracé 5438" d="M2424.145,616.412h77.443V541.126h-77.443v75.286Z" transform="translate(-2094.636 189.153)" fill="#ec5501" fill-rule="evenodd"/>
    <path id="Tracé_5439" data-name="Tracé 5439" d="M2424.145,540.031h77.443l9.125-9.126h-77.443l-9.126,9.126Z" transform="translate(-2094.636 190.247)" fill="#ca3402" fill-rule="evenodd"/>
    <path id="Tracé_5440" data-name="Tracé 5440" d="M2596.31,615.475h128.509v-83.1H2596.31v83.1Z" transform="translate(-2113.071 190.09)" fill="#fe991f" fill-rule="evenodd"/>
    <path id="Tracé_5441" data-name="Tracé 5441" d="M2615.805,615.475h5.438v-83.1h-5.438v83.1Z" transform="translate(-2115.159 190.09)" fill="#fed461" fill-rule="evenodd"/>
    <path id="Tracé_5442" data-name="Tracé 5442" d="M2644.47,615.475h85.506v-83.1H2644.47v83.1Z" transform="translate(-2118.229 190.09)" fill="#ec5501" fill-rule="evenodd"/>
    <path id="Tracé_5443" data-name="Tracé 5443" d="M2687.17,615.475h9.251v-83.1h-9.251v83.1Z" transform="translate(-2122.801 190.09)" fill="#fe991f" fill-rule="evenodd"/>
    <path id="Tracé_5444" data-name="Tracé 5444" d="M2627.32,525.112h93.632V464.546H2627.32v60.567Z" transform="translate(-2116.392 197.353)" fill="#fe991f" fill-rule="evenodd"/>
    <path id="Tracé_5445" data-name="Tracé 5445" d="M2641.53,525.112h3.969V464.546h-3.969v60.567Z" transform="translate(-2117.914 197.353)" fill="#fed461" fill-rule="evenodd"/>
    <path id="Tracé_5446" data-name="Tracé 5446" d="M2662.425,525.112h62.286V464.546h-62.286v60.567Z" transform="translate(-2120.151 197.353)" fill="#ec5501" fill-rule="evenodd"/>
    <path id="Tracé_5447" data-name="Tracé 5447" d="M2693.54,525.112h6.75V464.546h-6.75v60.567Z" transform="translate(-2123.483 197.353)" fill="#fe991f" fill-rule="evenodd"/>
    <path id="Tracé_5448" data-name="Tracé 5448" d="M2228.075,615.475h128.509v-83.1H2228.075v83.1Z" transform="translate(-2073.64 190.09)" fill="#857f79" fill-rule="evenodd"/>
    <path id="Tracé_5449" data-name="Tracé 5449" d="M2347.67,615.475h21.72v-83.1h-21.72v83.1Z" transform="translate(-2086.447 190.09)" fill="#35312e" fill-rule="evenodd"/>
    <path id="Tracé_5450" data-name="Tracé 5450" d="M2357.365,615.475h4.438v-83.1h-4.438v83.1Z" transform="translate(-2087.485 190.09)" fill="#857f79" fill-rule="evenodd"/>
    <path id="Tracé_5451" data-name="Tracé 5451" d="M2284.145,531h4.438v-8.282h19.5V531h4.438V519.566h-28.377V531Z" transform="translate(-2079.644 191.461)" fill="#857f79" fill-rule="evenodd"/>
    <path id="Tracé_5452" data-name="Tracé 5452" d="M2281.87,531h4.438v-8.282h19.47V531h4.438V519.566H2281.87V531Z" transform="translate(-2079.401 191.461)" fill="#fff" fill-rule="evenodd"/>
  </g>
</svg>
