<svg xmlns="http://www.w3.org/2000/svg" width="1005.596" height="422.78" viewBox="0 0 1005.596 422.78">
  <g id="Groupe_2831" data-name="Groupe 2831" transform="translate(-122.232 -413.475)">
    <path id="Tracé_5455" data-name="Tracé 5455" d="M5082.823,632.747H4089.7a6.269,6.269,0,0,0-6.25,6.25v18.189a6.269,6.269,0,0,0,6.25,6.25h993.127a6.242,6.242,0,0,0,6.219-6.25V639a6.242,6.242,0,0,0-6.219-6.25Z" transform="translate(-3961.214 172.818)" fill="#fff" fill-rule="evenodd"/>
    <path id="Tracé_5456" data-name="Tracé 5456" d="M4180.716,508.917c-14,0-25.35,24.752-25.35,55.285s11.349,55.285,25.35,55.285h32.654c13.974,0,25.314-24.752,25.314-55.285s-11.34-55.285-25.314-55.285Z" transform="translate(-3968.915 186.078)" fill="#211f1e" fill-rule="evenodd"/>
    <path id="Tracé_5457" data-name="Tracé 5457" d="M4586.082,508.917c-14,0-25.346,24.752-25.346,55.285s11.345,55.285,25.346,55.285h32.659c14,0,25.346-24.752,25.346-55.285s-11.345-55.285-25.346-55.285Z" transform="translate(-4012.323 186.078)" fill="#211f1e" fill-rule="evenodd"/>
    <path id="Tracé_5458" data-name="Tracé 5458" d="M4512.491,451.762V562.051c0,7.188-7.594,15.814-14.907,15.814H4143.247c-8.125,0-15.841-10.251-15.841-18.282V451.762Z" transform="translate(-3965.921 192.198)" fill="#211f1e" fill-rule="evenodd"/>
    <path id="Tracé_5459" data-name="Tracé 5459" d="M4571.931,545.408h49.941v7.626h31.1v-7.626h226.641V417.462H4494.551V553.034h77.38v-7.626Z" transform="translate(-4005.236 195.871)" fill="#211f1e" fill-rule="evenodd"/>
    <path id="Tracé_5460" data-name="Tracé 5460" d="M4221.053,359.607h-14.6a2.417,2.417,0,0,0-2.437,2.406V387.64a2.437,2.437,0,0,0,2.437,2.406h14.6a2.437,2.437,0,0,0,2.438-2.406V362.013a2.417,2.417,0,0,0-2.437-2.406Z" transform="translate(-3974.125 202.066)" fill="#2f3c58" fill-rule="evenodd"/>
    <path id="Tracé_5461" data-name="Tracé 5461" d="M4218.767,359.607h-12.652a2.1,2.1,0,0,0-2.1,2.094v26.252a2.1,2.1,0,0,0,2.1,2.094h12.652a2.1,2.1,0,0,0,2.1-2.094V361.7a2.1,2.1,0,0,0-2.1-2.094Z" transform="translate(-3974.125 202.066)" fill="#232223" fill-rule="evenodd"/>
    <path id="Tracé_5462" data-name="Tracé 5462" d="M4211.9,399.1V393.7h5.4V399.1Z" transform="translate(-3974.969 198.416)" fill="#2f3c58" fill-rule="evenodd"/>
    <path id="Tracé_5463" data-name="Tracé 5463" d="M4211.9,399.1V393.7h3.313V399.1Z" transform="translate(-3974.969 198.416)" fill="#232223" fill-rule="evenodd"/>
    <path id="Tracé_5464" data-name="Tracé 5464" d="M4554.635,216.177H4344.406V426.535h124v87.6h86.225V216.177Z" transform="translate(-3989.158 217.425)" fill="#b7d3d0" fill-rule="evenodd"/>
    <path id="Tracé_5465" data-name="Tracé 5465" d="M4358.434,216.177h-14.028V426.535h14.028V216.177Z" transform="translate(-3989.158 217.425)" fill="#5b8689" fill-rule="evenodd"/>
    <path id="Tracé_5466" data-name="Tracé 5466" d="M4344.406,213.763h553.878c0-6.719-8.594-20.126-20.72-20.126H4365.122c-12.125,0-20.716,10.97-20.716,20.126Z" transform="translate(-3989.158 219.838)" fill="#5b8689" fill-rule="evenodd"/>
    <path id="Tracé_5467" data-name="Tracé 5467" d="M4578.163,216.177H4564.13V514.135h14.033V216.177Z" transform="translate(-4012.686 217.425)" fill="#5b8689" fill-rule="evenodd"/>
    <path id="Tracé_5468" data-name="Tracé 5468" d="M4579.846,216.177H4923.5V514.135h-80.568c-6-28.158-25.158-48.753-47.847-48.753s-41.847,20.6-47.847,48.753H4579.846V216.177Z" transform="translate(-4014.369 217.425)" fill="#fff" fill-rule="evenodd"/>
    <path id="Tracé_5469" data-name="Tracé 5469" d="M4579.846,512.039H4761.39c8.844-11.063,20.689-17.814,33.69-17.814s24.845,6.75,33.689,17.814H4923.5v-26.5H4579.846v26.5Z" transform="translate(-4014.369 188.581)" fill="#8cb4b4" fill-rule="evenodd"/>
    <path id="Tracé_5470" data-name="Tracé 5470" d="M4579.846,475.2h343.649v-9.126H4579.846V475.2Z" transform="translate(-4014.369 190.665)" fill="#8cb4b4" fill-rule="evenodd"/>
    <path id="Tracé_5471" data-name="Tracé 5471" d="M4579.846,213.763H4923.5c0-6.719-8.594-20.126-20.72-20.126H4600.566c-12.157,0-20.72,10.97-20.72,20.126Z" transform="translate(-4014.369 219.838)" fill="#8cb4b4" fill-rule="evenodd"/>
    <path id="Tracé_5472" data-name="Tracé 5472" d="M4579.846,216.177h10.345V514.135h-10.345V216.177Z" transform="translate(-4014.369 217.425)" fill="#8cb4b4" fill-rule="evenodd"/>
    <path id="Tracé_5473" data-name="Tracé 5473" d="M4337.472,291.917h-40.19c-8.716,0-22.252,5.688-27.35,12.751l-54.254,75.349-88.56,33.19c-7.313,2.75-12.323,12.063-12.323,19.876v89.162h214.02c6-28.158,25.126-48.753,47.815-48.753,22.721,0,41.847,20.6,47.848,48.753h82.1V291.917Z" transform="translate(-3964.571 209.314)" fill="#e0001e" fill-rule="evenodd"/>
    <path id="Tracé_5474" data-name="Tracé 5474" d="M4283.878,450.012H4114.8v89.162h169.083V450.012Z" transform="translate(-3964.571 192.385)" fill="#d8001c" fill-rule="evenodd"/>
    <path id="Tracé_5475" data-name="Tracé 5475" d="M4297.67,423.772H4128.6l88.56-33.19h169.079l-88.564,33.19Z" transform="translate(-3966.049 198.749)" fill="#eb0725" fill-rule="evenodd"/>
    <path id="Tracé_5476" data-name="Tracé 5476" d="M4448.312,304.552h-162.1l-51.566,73.411h162.1l51.566-73.411Z" transform="translate(-3977.405 207.961)" fill="#232223" fill-rule="evenodd"/>
    <path id="Tracé_5477" data-name="Tracé 5477" d="M4445.369,306.512l-49.128,69.942H4238.386l49.128-69.942Z" transform="translate(-3977.805 207.752)" fill="#346983" fill-rule="evenodd"/>
    <path id="Tracé_5478" data-name="Tracé 5478" d="M4345.912,376.454h-3.938L4301.6,306.512h3.938l40.378,69.942Zm57.785-.969-.687.969h-22.94L4339.7,306.512h24.185l39.815,68.974Zm9.407-13.407-6.095,8.688-37.1-64.254h11.094l32.1,55.566Z" transform="translate(-3984.574 207.752)" fill="#528ea4" fill-rule="evenodd"/>
    <path id="Tracé_5479" data-name="Tracé 5479" d="M4526.854,291.917h-40.222c-8.719,0-22.221,5.688-27.314,12.751l-54.285,75.349-88.565,33.19c-7.285,2.75-12.313,12.063-12.313,19.876v89.162h44.937c6-28.158,25.126-48.753,47.816-48.753,22.72,0,41.847,20.6,47.847,48.753h82.1V291.917Z" transform="translate(-3984.848 209.314)" fill="#f92549" fill-rule="evenodd"/>
    <path id="Tracé_5480" data-name="Tracé 5480" d="M4496.773,303.846h34.971V514.861h-69.129c-4.75-19.439-18.189-38.284-37.44-45.316V381.414l47.91-66.5c6.719-9.344,12.25-11.063,23.689-11.063Zm0-1.219c-11.813,0-17.72,1.906-24.689,11.563l-48.128,66.848V470.42c19.845,7,32.971,25.721,37.722,45.659h71.286V302.627Z" transform="translate(-3997.676 208.168)" fill="#d8001c"/>
    <path id="Tracé_5481" data-name="Tracé 5481" d="M4528.948,312.042h-32.971c-13.22,0-17.376,3.469-22.408,10.469l-44.5,61.786,99.882.063V312.042Z" transform="translate(-3998.223 207.159)" fill="#232223" fill-rule="evenodd"/>
    <path id="Tracé_5482" data-name="Tracé 5482" d="M4527.634,313.967v68.849l-94.788-.031,42.534-59.067a27.031,27.031,0,0,1,5.282-5.875c4.406-3.438,10.344-3.875,15.72-3.875Z" transform="translate(-3998.628 206.953)" fill="#66a0b4" fill-rule="evenodd"/>
    <path id="Tracé_5483" data-name="Tracé 5483" d="M4460.629,382.784h-3.938l-6.625-21.377,2.782-3.844,7.782,25.221Zm58.348.031h-24.189l-18.064-58.41.5-.688a27.031,27.031,0,0,1,5.282-5.875c4.25-3.313,9.938-3.844,15.157-3.875l21.314,68.849Zm10.5-21.47v21.47h-4.469l-21.283-68.849h11.094l14.658,47.378Z" transform="translate(-4000.472 206.953)" fill="#8dc4d3" fill-rule="evenodd"/>
    <path id="Tracé_5484" data-name="Tracé 5484" d="M4240.9,476.415H4169a1.668,1.668,0,0,0-1.661,1.656v3.219a1.668,1.668,0,0,0,1.661,1.656H4240.9a1.692,1.692,0,0,0,1.688-1.656v-3.219a1.692,1.692,0,0,0-1.687-1.656Zm0,14.157H4169a1.668,1.668,0,0,0-1.661,1.656v3.219A1.668,1.668,0,0,0,4169,497.1H4240.9a1.692,1.692,0,0,0,1.688-1.656v-3.219a1.692,1.692,0,0,0-1.687-1.656Zm0,14.157H4169a1.675,1.675,0,0,0-1.661,1.688v3.188a1.675,1.675,0,0,0,1.661,1.688H4240.9a1.7,1.7,0,0,0,1.688-1.688v-3.188a1.7,1.7,0,0,0-1.687-1.688Zm0-42.5H4169a1.675,1.675,0,0,0-1.661,1.688V467.1A1.675,1.675,0,0,0,4169,468.79H4240.9a1.7,1.7,0,0,0,1.688-1.688v-3.188a1.7,1.7,0,0,0-1.687-1.688Z" transform="translate(-3970.197 191.077)" fill="#5e1f22" fill-rule="evenodd"/>
    <path id="Tracé_5485" data-name="Tracé 5485" d="M4311.54,456.1h-41.324a6.864,6.864,0,0,0-6.84,6.844v46.941a6.885,6.885,0,0,0,6.84,6.844h41.324a6.879,6.879,0,0,0,6.84-6.844V462.946a6.858,6.858,0,0,0-6.84-6.844Z" transform="translate(-3980.481 191.733)" fill="#282b35" fill-rule="evenodd"/>
    <path id="Tracé_5486" data-name="Tracé 5486" d="M4300.415,456.1h-31.761a5.268,5.268,0,0,0-5.277,5.25v50.1a5.294,5.294,0,0,0,5.277,5.282h31.761a5.288,5.288,0,0,0,5.249-5.282v-50.1a5.261,5.261,0,0,0-5.249-5.25Z" transform="translate(-3980.481 191.733)" fill="#232223" fill-rule="evenodd"/>
    <path id="Tracé_5487" data-name="Tracé 5487" d="M4311.25,462.752h-39.44a2.382,2.382,0,0,0-2.384,2.375v14.439a2.382,2.382,0,0,0,2.384,2.375h39.44a2.367,2.367,0,0,0,2.366-2.375V465.127a2.367,2.367,0,0,0-2.366-2.375Z" transform="translate(-3981.129 191.021)" fill="#fdba65" fill-rule="evenodd"/>
    <path id="Tracé_5488" data-name="Tracé 5488" d="M4306.276,462.752H4271.81a2.382,2.382,0,0,0-2.384,2.375v14.439a2.382,2.382,0,0,0,2.384,2.375h34.466a2.374,2.374,0,0,0,2.375-2.375V465.127a2.374,2.374,0,0,0-2.375-2.375Z" transform="translate(-3981.129 191.021)" fill="#fe991f" fill-rule="evenodd"/>
    <path id="Tracé_5489" data-name="Tracé 5489" d="M4310.491,489.527h-37.94a3.144,3.144,0,0,0-3.125,3.156v19a3.138,3.138,0,0,0,3.125,3.125h37.94a3.132,3.132,0,0,0,3.125-3.125v-19a3.138,3.138,0,0,0-3.125-3.156Z" transform="translate(-3981.129 188.154)" fill="#fff" fill-rule="evenodd"/>
    <path id="Tracé_5490" data-name="Tracé 5490" d="M4305.5,489.527h-32.949a3.144,3.144,0,0,0-3.125,3.156v19a3.138,3.138,0,0,0,3.125,3.125H4305.5a3.143,3.143,0,0,0,3.152-3.125v-19a3.149,3.149,0,0,0-3.152-3.156Z" transform="translate(-3981.129 188.154)" fill="#dbde7d" fill-rule="evenodd"/>
    <path id="Tracé_5491" data-name="Tracé 5491" d="M4143.959,456.1h-31.742a5.262,5.262,0,0,0-5.251,5.25v50.1a5.289,5.289,0,0,0,5.251,5.282h31.742a5.283,5.283,0,0,0,5.251-5.282v-50.1a5.256,5.256,0,0,0-5.251-5.25Z" transform="translate(-3963.733 191.733)" fill="#232223" fill-rule="evenodd"/>
    <path id="Tracé_5492" data-name="Tracé 5492" d="M4141.193,462.752h-34.065a2.4,2.4,0,0,0-2.4,2.375v14.439a2.4,2.4,0,0,0,2.4,2.375h34.065a2.4,2.4,0,0,0,2.411-2.375V465.127a2.4,2.4,0,0,0-2.411-2.375Z" transform="translate(-3963.493 191.021)" fill="#fe991f" fill-rule="evenodd"/>
    <path id="Tracé_5493" data-name="Tracé 5493" d="M4140.443,489.527h-32.565a3.168,3.168,0,0,0-3.153,3.156v19a3.161,3.161,0,0,0,3.153,3.125h32.565a3.145,3.145,0,0,0,3.161-3.125v-19a3.152,3.152,0,0,0-3.161-3.156Z" transform="translate(-3963.493 188.154)" fill="#dbde7d" fill-rule="evenodd"/>
    <path id="Tracé_5494" data-name="Tracé 5494" d="M4329.479,534.922H4097.306a3.144,3.144,0,0,0-3.16,3.125v19a3.171,3.171,0,0,0,3.16,3.156h232.173a3.167,3.167,0,0,0,3.155-3.156v-19a3.14,3.14,0,0,0-3.155-3.125Z" transform="translate(-3962.36 183.293)" fill="#282b35" fill-rule="evenodd"/>
    <path id="Tracé_5495" data-name="Tracé 5495" d="M4268.943,534.922H4097.306a3.144,3.144,0,0,0-3.16,3.125v19a3.171,3.171,0,0,0,3.16,3.156h171.637a3.159,3.159,0,0,0,3.126-3.156v-19a3.132,3.132,0,0,0-3.126-3.125Z" transform="translate(-3962.36 183.293)" fill="#232223" fill-rule="evenodd"/>
    <path id="Tracé_5496" data-name="Tracé 5496" d="M4537.089,415.327h-19.72a1.187,1.187,0,0,0-1.187,1.188v7.219a1.187,1.187,0,0,0,1.188,1.188h19.72a1.187,1.187,0,0,0,1.188-1.188v-7.219a1.187,1.187,0,0,0-1.187-1.188Z" transform="translate(-4007.552 196.1)" fill="#244e4b" fill-rule="evenodd"/>
    <path id="Tracé_5497" data-name="Tracé 5497" d="M4536.372,416.657H4518.4a.761.761,0,0,0-.75.75v4.469a.761.761,0,0,0,.75.75h17.97a.76.76,0,0,0,.75-.75v-4.469a.76.76,0,0,0-.75-.75Z" transform="translate(-4007.709 195.957)" fill="#233533" fill-rule="evenodd"/>
    <path id="Tracé_5498" data-name="Tracé 5498" d="M4536.652,416.657H4518.12a.454.454,0,0,0-.469.438v2.719a.454.454,0,0,0,.469.438h18.533a.454.454,0,0,0,.469-.438v-2.719a.454.454,0,0,0-.469-.437Z" transform="translate(-4007.709 195.957)" fill="#fff" fill-rule="evenodd"/>
    <path id="Tracé_5499" data-name="Tracé 5499" d="M4455.619,359.607h-14.595a2.415,2.415,0,0,0-2.438,2.406V387.64a2.435,2.435,0,0,0,2.438,2.406h14.595a2.434,2.434,0,0,0,2.438-2.406V362.013a2.414,2.414,0,0,0-2.437-2.406Z" transform="translate(-3999.243 202.066)" fill="#2f3c58" fill-rule="evenodd"/>
    <path id="Tracé_5500" data-name="Tracé 5500" d="M4453.337,359.607H4440.68a2.094,2.094,0,0,0-2.094,2.094v26.252a2.094,2.094,0,0,0,2.094,2.094h12.657a2.094,2.094,0,0,0,2.094-2.094V361.7a2.094,2.094,0,0,0-2.094-2.094Z" transform="translate(-3999.243 202.066)" fill="#232223" fill-rule="evenodd"/>
    <path id="Tracé_5501" data-name="Tracé 5501" d="M4449.8,402.7h-20.845a1.788,1.788,0,0,1-1.782-1.813h0a1.781,1.781,0,0,1,1.782-1.781H4444.4V393.7h5.407v9Z" transform="translate(-3998.021 198.416)" fill="#2f3c58" fill-rule="evenodd"/>
    <path id="Tracé_5502" data-name="Tracé 5502" d="M4447.708,402.7h-18.751a1.788,1.788,0,0,1-1.782-1.813h0a1.781,1.781,0,0,1,1.782-1.781H4444.4V393.7h3.313v9Z" transform="translate(-3998.021 198.416)" fill="#232223" fill-rule="evenodd"/>
    <path id="Tracé_5503" data-name="Tracé 5503" d="M4385.741,508.917c-14,0-25.345,24.752-25.345,55.285s11.344,55.285,25.345,55.285H4418.4c14,0,25.346-24.752,25.346-55.285s-11.344-55.285-25.346-55.285Z" transform="translate(-3990.87 186.078)" fill="#232223" fill-rule="evenodd"/>
    <path id="Tracé_5504" data-name="Tracé 5504" d="M4422.316,619.487c-13.97,0-25.345-24.814-25.345-55.285,0-30.44,11.375-55.285,25.345-55.285,13.938,0,25.346,24.846,25.346,55.285,0,30.471-11.407,55.285-25.346,55.285Z" transform="translate(-3994.787 186.078)" fill="#282b35" fill-rule="evenodd"/>
    <path id="Tracé_5505" data-name="Tracé 5505" d="M4423.613,601.806c-8,0-14.532-15.814-14.532-35.19s6.532-35.159,14.532-35.159,14.532,15.782,14.532,35.159-6.532,35.19-14.532,35.19Z" transform="translate(-3996.083 183.664)" fill="#fff" fill-rule="evenodd"/>
    <path id="Tracé_5506" data-name="Tracé 5506" d="M4423.786,598.721c-7.219,0-13.095-14.22-13.095-31.69s5.875-31.69,13.095-31.69,13.095,14.22,13.095,31.69-5.875,31.69-13.095,31.69Z" transform="translate(-3996.256 183.248)" fill="#8cb4b4" fill-rule="evenodd"/>
    <path id="Tracé_5507" data-name="Tracé 5507" d="M4421.688,590.608c-5.125,0-9.282-10.094-9.282-22.47s4.157-22.47,9.282-22.47c5.094,0,9.282,10.094,9.282,22.47s-4.188,22.47-9.282,22.47Z" transform="translate(-3996.439 182.143)" fill="#3c656b" fill-rule="evenodd"/>
    <path id="Tracé_5508" data-name="Tracé 5508" d="M4421.943,551.442c-3.969,0-7.157,7.751-7.157,17.314s5.563,1.938,9.5,1.938c3.969,0,4.782,7.625,4.782-1.938s-3.188-17.314-7.125-17.314Z" transform="translate(-3996.694 181.524)" fill="#fff" fill-rule="evenodd"/>
    <path id="Tracé_5509" data-name="Tracé 5509" d="M4798.6,508.917c-14,0-25.346,24.752-25.346,55.285s11.345,55.285,25.346,55.285h32.627c14,0,25.345-24.752,25.345-55.285s-11.345-55.285-25.345-55.285Z" transform="translate(-4035.08 186.078)" fill="#232223" fill-rule="evenodd"/>
    <path id="Tracé_5510" data-name="Tracé 5510" d="M4835.146,619.487c-13.939,0-25.314-24.814-25.314-55.285,0-30.44,11.375-55.285,25.314-55.285,13.97,0,25.345,24.846,25.345,55.285,0,30.471-11.375,55.285-25.345,55.285Z" transform="translate(-4038.996 186.078)" fill="#282b35" fill-rule="evenodd"/>
    <path id="Tracé_5511" data-name="Tracé 5511" d="M4836.442,601.806c-8,0-14.5-15.814-14.5-35.19s6.5-35.159,14.5-35.159,14.532,15.782,14.532,35.159-6.532,35.19-14.532,35.19Z" transform="translate(-4040.293 183.664)" fill="#fff" fill-rule="evenodd"/>
    <path id="Tracé_5512" data-name="Tracé 5512" d="M4836.615,598.721c-7.188,0-13.064-14.22-13.064-31.69s5.875-31.69,13.064-31.69c7.219,0,13.095,14.22,13.095,31.69s-5.875,31.69-13.095,31.69Z" transform="translate(-4040.465 183.248)" fill="#8cb4b4" fill-rule="evenodd"/>
    <path id="Tracé_5513" data-name="Tracé 5513" d="M4834.513,590.608c-5.094,0-9.282-10.094-9.282-22.47s4.188-22.47,9.282-22.47c5.126,0,9.282,10.094,9.282,22.47s-4.156,22.47-9.282,22.47Z" transform="translate(-4040.645 182.143)" fill="#3c656b" fill-rule="evenodd"/>
    <path id="Tracé_5514" data-name="Tracé 5514" d="M4834.771,551.442c-3.937,0-7.125,7.751-7.125,17.314s5.563,1.938,9.5,1.938,4.782,7.625,4.782-1.938-3.188-17.314-7.157-17.314Z" transform="translate(-4040.904 181.524)" fill="#fff" fill-rule="evenodd"/>
    <path id="Tracé_5515" data-name="Tracé 5515" d="M5007.095,623.718H4890.681V548.432h116.414v75.286Z" transform="translate(-4047.654 181.847)" fill="#fe991f" fill-rule="evenodd"/>
    <path id="Tracé_5516" data-name="Tracé 5516" d="M5016.382,547.338h-38.971l9.125-9.126h38.972l-9.126,9.126Z" transform="translate(-4056.941 182.941)" fill="#ec5501" fill-rule="evenodd"/>
    <path id="Tracé_5517" data-name="Tracé 5517" d="M4968.124,623.718h-77.443V548.432h77.443v75.286Z" transform="translate(-4047.654 181.847)" fill="#ec5501" fill-rule="evenodd"/>
    <path id="Tracé_5518" data-name="Tracé 5518" d="M4967.029,547.338h-77.443l-9.126-9.126H4957.9l9.126,9.126Z" transform="translate(-4046.559 182.941)" fill="#ca3402" fill-rule="evenodd"/>
    <path id="Tracé_5519" data-name="Tracé 5519" d="M4789.834,622.781H4661.326v-83.1h128.509v83.1Z" transform="translate(-4023.094 182.784)" fill="#fe991f" fill-rule="evenodd"/>
    <path id="Tracé_5520" data-name="Tracé 5520" d="M4785.1,622.781h-5.437v-83.1h5.438v83.1Z" transform="translate(-4035.766 182.784)" fill="#fed461" fill-rule="evenodd"/>
    <path id="Tracé_5521" data-name="Tracé 5521" d="M4746.831,622.781h-85.505v-83.1h85.505v83.1Z" transform="translate(-4023.094 182.784)" fill="#ec5501" fill-rule="evenodd"/>
    <path id="Tracé_5522" data-name="Tracé 5522" d="M4713.277,622.781h-9.251v-83.1h9.251v83.1Z" transform="translate(-4027.667 182.784)" fill="#fe991f" fill-rule="evenodd"/>
    <path id="Tracé_5523" data-name="Tracé 5523" d="M4763.007,532.419h-93.632V471.852h93.632v60.567Z" transform="translate(-4023.956 190.047)" fill="#fe991f" fill-rule="evenodd"/>
    <path id="Tracé_5524" data-name="Tracé 5524" d="M4759.55,532.419h-3.969V471.852h3.969v60.567Z" transform="translate(-4033.188 190.047)" fill="#fed461" fill-rule="evenodd"/>
    <path id="Tracé_5525" data-name="Tracé 5525" d="M4731.662,532.419h-62.286V471.852h62.286v60.567Z" transform="translate(-4023.956 190.047)" fill="#ec5501" fill-rule="evenodd"/>
    <path id="Tracé_5526" data-name="Tracé 5526" d="M4707.207,532.419h-6.75V471.852h6.75v60.567Z" transform="translate(-4027.285 190.047)" fill="#fe991f" fill-rule="evenodd"/>
    <path id="Tracé_5527" data-name="Tracé 5527" d="M5158.069,622.781H5029.561v-83.1h128.509v83.1Z" transform="translate(-4062.525 182.784)" fill="#857f79" fill-rule="evenodd"/>
    <path id="Tracé_5528" data-name="Tracé 5528" d="M5051.281,622.781h-21.721v-83.1h21.721v83.1Z" transform="translate(-4062.525 182.784)" fill="#35312e" fill-rule="evenodd"/>
    <path id="Tracé_5529" data-name="Tracé 5529" d="M5043.659,622.781h-4.437v-83.1h4.438v83.1Z" transform="translate(-4063.56 182.784)" fill="#857f79" fill-rule="evenodd"/>
    <path id="Tracé_5530" data-name="Tracé 5530" d="M5114.007,538.31h-4.438v-8.282h-19.5v8.282h-4.438V526.872h28.377V538.31Z" transform="translate(-4068.529 184.155)" fill="#857f79" fill-rule="evenodd"/>
    <path id="Tracé_5531" data-name="Tracé 5531" d="M5116.286,538.31h-4.438v-8.282h-19.47v8.282h-4.438V526.872h28.346V538.31Z" transform="translate(-4068.777 184.155)" fill="#fff" fill-rule="evenodd"/>
  </g>
</svg>
