<svg id="Groupe_2837" data-name="Groupe 2837" xmlns="http://www.w3.org/2000/svg" width="128.502" height="98.46" viewBox="0 0 128.502 98.46">
  <g id="Groupe_1946" data-name="Groupe 1946" transform="translate(0 0)">
    <g id="Groupe_1945" data-name="Groupe 1945">
      <g id="Groupe_1944" data-name="Groupe 1944">
        <path id="Tracé_3094" data-name="Tracé 3094" d="M452.785,394.4H436.63V352.195l14.24-5.845a4.675,4.675,0,0,0,2.628-5.934l-4.718-13.022a4.7,4.7,0,0,0-2.624-2.739,4.654,4.654,0,0,0-1.784-.353,4.715,4.715,0,0,0-2.031.464l-10.008,4.791c-2.684-11.2-18.19-19.349-21.069-20.776a23.418,23.418,0,0,0-11.952-3.465,19.212,19.212,0,0,0-7.3,1.419,11.383,11.383,0,0,0-7.282,11.179c0,.155.006.309.012.464-1.015-.088-2.093-.14-3.218-.14a28.845,28.845,0,0,0-9.987,1.663,43.3,43.3,0,0,1-5.705,1.528c-4.835,1.066-11.145,2.457-14.457,8.924L339.7,324.762a4.748,4.748,0,0,0-2.025-.459h0a4.684,4.684,0,0,0-4.4,3.085l-4.72,13.027a4.676,4.676,0,0,0,2.631,5.935l14.249,5.848v42.2H329.263a4.643,4.643,0,0,0-2.49.732,76.157,76.157,0,0,0,6.365,8.644H448.91a76.1,76.1,0,0,0,6.365-8.645A4.647,4.647,0,0,0,452.785,394.4Z" transform="translate(-326.773 -305.316)" fill="none"/>
      </g>
    </g>
  </g>
  <g id="Groupe_2001" data-name="Groupe 2001" transform="translate(5.133 3.626)">
    <g id="Groupe_1967" data-name="Groupe 1967" transform="translate(18.206 1.06)">
      <g id="Groupe_1948" data-name="Groupe 1948" transform="translate(27.067 39.054)">
        <g id="Groupe_1947" data-name="Groupe 1947">
          <rect id="Rectangle_858" data-name="Rectangle 858" width="31.548" height="50.032" fill="#dd916b"/>
        </g>
      </g>
      <g id="Groupe_1950" data-name="Groupe 1950" transform="translate(0 39.054)">
        <g id="Groupe_1949" data-name="Groupe 1949">
          <rect id="Rectangle_859" data-name="Rectangle 859" width="27.067" height="50.032" fill="#ce8261"/>
        </g>
      </g>
      <g id="Groupe_1952" data-name="Groupe 1952" transform="translate(58.615 39.054)">
        <g id="Groupe_1951" data-name="Groupe 1951">
          <rect id="Rectangle_860" data-name="Rectangle 860" width="23.208" height="50.032" fill="#eaa07f"/>
        </g>
      </g>
      <g id="Groupe_1954" data-name="Groupe 1954" transform="translate(58.615 26.878)">
        <g id="Groupe_1953" data-name="Groupe 1953">
          <path id="Tracé_3095" data-name="Tracé 3095" d="M443.633,362.5h23.208l-4.049-12.176H443.633Z" transform="translate(-443.633 -350.324)" fill="#f9bca7"/>
        </g>
      </g>
      <g id="Groupe_1956" data-name="Groupe 1956" transform="translate(27.067 26.878)">
        <g id="Groupe_1955" data-name="Groupe 1955">
          <path id="Tracé_3096" data-name="Tracé 3096" d="M416.031,350.324H398.649V362.5H430.2V350.324Z" transform="translate(-398.649 -350.324)" fill="#dd9976"/>
        </g>
      </g>
      <g id="Groupe_1958" data-name="Groupe 1958" transform="translate(0 26.878)">
        <g id="Groupe_1957" data-name="Groupe 1957">
          <path id="Tracé_3097" data-name="Tracé 3097" d="M387.121,350.324H364.089L360.053,362.5h27.067Z" transform="translate(-360.053 -350.324)" fill="#d18b6d"/>
        </g>
      </g>
      <g id="Groupe_1960" data-name="Groupe 1960" transform="translate(58.615 2.727)">
        <g id="Groupe_1959" data-name="Groupe 1959">
          <path id="Tracé_3098" data-name="Tracé 3098" d="M462.073,340.038l.72-2.417c2.056-11.2-18.993-21.628-18.993-21.628l-.167-.106v24.151Z" transform="translate(-443.633 -315.887)" fill="#ffac5a"/>
        </g>
      </g>
      <g id="Groupe_1962" data-name="Groupe 1962" transform="translate(39.302)">
        <g id="Groupe_1961" data-name="Groupe 1961">
          <path id="Tracé_3099" data-name="Tracé 3099" d="M421.242,338.876h14.165V314.725c-1.074-.675-7.783-4.578-14.947-1.653a6.693,6.693,0,0,0-4.366,6.789,16.754,16.754,0,0,0,1.6,6.436l.971,12.579Z" transform="translate(-416.094 -311.998)" fill="#ffa039"/>
        </g>
      </g>
      <g id="Groupe_1964" data-name="Groupe 1964" transform="translate(4.036 13.272)">
        <g id="Groupe_1963" data-name="Groupe 1963">
          <path id="Tracé_3100" data-name="Tracé 3100" d="M388.84,330.923a21.524,21.524,0,0,0-4.026,1.027c-8.4,3.093-17.1,1.349-19.005,12.579H388.84Z" transform="translate(-365.808 -330.923)" fill="#035068"/>
        </g>
      </g>
      <g id="Groupe_1966" data-name="Groupe 1966" transform="translate(27.067 12.936)">
        <g id="Groupe_1965" data-name="Groupe 1965">
          <path id="Tracé_3101" data-name="Tracé 3101" d="M413.458,344.386l-.971-12.579a33.18,33.18,0,0,0-13.837-1.027v13.606Z" transform="translate(-398.649 -330.444)" fill="#055b7c"/>
        </g>
      </g>
    </g>
    <g id="Groupe_2000" data-name="Groupe 2000">
      <g id="Groupe_1973" data-name="Groupe 1973" transform="translate(1.045 20.049)">
        <g id="Groupe_1972" data-name="Groupe 1972">
          <g id="Groupe_1969" data-name="Groupe 1969">
            <g id="Groupe_1968" data-name="Groupe 1968">
              <path id="Tracé_3102" data-name="Tracé 3102" d="M340.3,339.075l16.478,7.889-4.035,12.176L335.583,352.1Z" transform="translate(-335.583 -339.075)" fill="#e2a388"/>
            </g>
          </g>
          <g id="Groupe_1971" data-name="Groupe 1971" transform="translate(94.935)">
            <g id="Groupe_1970" data-name="Groupe 1970">
              <path id="Tracé_3103" data-name="Tracé 3103" d="M487.432,339.075l-16.478,7.889,4.036,12.176L492.15,352.1Z" transform="translate(-470.953 -339.075)" fill="#e2a388"/>
            </g>
          </g>
        </g>
      </g>
      <g id="Groupe_1992" data-name="Groupe 1992">
        <g id="Groupe_1989" data-name="Groupe 1989">
          <g id="Groupe_1985" data-name="Groupe 1985" transform="translate(0 18.997)">
            <g id="Groupe_1982" data-name="Groupe 1982">
              <g id="Groupe_1975" data-name="Groupe 1975" transform="translate(17.161 20.065)">
                <g id="Groupe_1974" data-name="Groupe 1974">
                  <path id="Tracé_3104" data-name="Tracé 3104" d="M441.437,418.322H359.615a1.051,1.051,0,0,1-1.052-1.052V367.238a1.051,1.051,0,0,1,1.052-1.052h81.823a1.051,1.051,0,0,1,1.052,1.052V417.27A1.051,1.051,0,0,1,441.437,418.322Zm-80.771-2.1h79.719V368.29H360.667Z" transform="translate(-358.563 -366.186)" fill="#303030"/>
                </g>
              </g>
              <g id="Groupe_1977" data-name="Groupe 1977">
                <g id="Groupe_1976" data-name="Groupe 1976">
                  <path id="Tracé_3105" data-name="Tracé 3105" d="M352.306,359.744a1.062,1.062,0,0,1-.4-.078l-17.162-7.043a1.051,1.051,0,0,1-.589-1.331l4.718-13.023a1.052,1.052,0,0,1,1.443-.591l16.479,7.889a1.053,1.053,0,0,1,.544,1.28L353.3,359.023a1.052,1.052,0,0,1-1,.721Zm-15.828-8.685,15.185,6.232,3.389-10.226-14.595-6.986Z" transform="translate(-334.093 -337.575)" fill="#303030"/>
                </g>
              </g>
              <g id="Groupe_1979" data-name="Groupe 1979" transform="translate(94.935)">
                <g id="Groupe_1978" data-name="Groupe 1978">
                  <path id="Tracé_3106" data-name="Tracé 3106" d="M474.55,359.744a1.052,1.052,0,0,1-1-.721l-4.035-12.176a1.052,1.052,0,0,1,.544-1.28l16.478-7.889a1.053,1.053,0,0,1,1.444.591l4.718,13.023a1.051,1.051,0,0,1-.59,1.331l-17.161,7.043A1.065,1.065,0,0,1,474.55,359.744Zm-2.746-12.68,3.389,10.226,15.185-6.232L486.4,340.077Z" transform="translate(-469.462 -337.575)" fill="#303030"/>
                </g>
              </g>
              <g id="Groupe_1981" data-name="Groupe 1981" transform="translate(17.161 7.889)">
                <g id="Groupe_1980" data-name="Groupe 1980">
                  <path id="Tracé_3107" data-name="Tracé 3107" d="M441.438,363.1H359.615a1.052,1.052,0,0,1-1-1.383l4.035-12.176a1.053,1.053,0,0,1,1-.721h73.739a1.053,1.053,0,0,1,1,.72l4.049,12.176a1.052,1.052,0,0,1-1,1.384ZM361.072,361h78.908l-3.349-10.072H364.41Z" transform="translate(-358.563 -348.824)" fill="#303030"/>
                </g>
              </g>
            </g>
          </g>
          <g id="Groupe_1988" data-name="Groupe 1988" transform="translate(56.462)">
            <g id="Groupe_1987" data-name="Groupe 1987">
              <g id="Groupe_1986" data-name="Groupe 1986">
                <path id="Tracé_3109" data-name="Tracé 3109" d="M453.408,339.477H418.23a1.052,1.052,0,0,1-1.049-.971l-.957-12.384a17.645,17.645,0,0,1-1.621-6.7,7.714,7.714,0,0,1,5.02-7.774c7.942-3.245,15.235,1.293,16.039,1.821,1.516.759,21.637,11.079,19.5,22.731-.007.037-.016.074-.027.11l-.72,2.417A1.052,1.052,0,0,1,453.408,339.477Zm-34.2-2.1h33.42l.479-1.608c1.809-10.287-18.232-20.341-18.434-20.442a1.112,1.112,0,0,1-.123-.071h0c-.069-.046-6.944-4.59-14.127-1.657a5.616,5.616,0,0,0-3.711,5.8,15.8,15.8,0,0,0,1.492,5.976,1.07,1.07,0,0,1,.108.39Z" transform="translate(-414.603 -310.487)" fill="#303030"/>
              </g>
            </g>
          </g>
        </g>
        <g id="Groupe_1991" data-name="Groupe 1991" transform="translate(21.196 12.923)">
          <g id="Groupe_1990" data-name="Groupe 1990">
            <path id="Tracé_3110" data-name="Tracé 3110" d="M403.21,344.981H365.369a1.052,1.052,0,0,1-1.037-1.228c1.543-9.087,7.348-10.367,13.5-11.723a46.8,46.8,0,0,0,6.184-1.668c8.646-3.183,18.153-.144,18.554-.013a1.053,1.053,0,0,1,.722.919l.971,12.579a1.052,1.052,0,0,1-1.048,1.133Zm-36.554-2.1h35.418l-.828-10.719c-2.251-.605-9.8-2.29-16.508.179a48.507,48.507,0,0,1-6.458,1.748C372.705,335.314,368.237,336.3,366.656,342.877Z" transform="translate(-364.317 -328.915)" fill="#303030"/>
          </g>
        </g>
      </g>
      <g id="Groupe_1994" data-name="Groupe 1994" transform="translate(37.143 73.513)">
        <g id="Groupe_1993" data-name="Groupe 1993">
          <path id="Tracé_3111" data-name="Tracé 3111" d="M426.726,417.414H388.107a1.052,1.052,0,0,1,0-2.1h38.619a1.052,1.052,0,0,1,0,2.1Z" transform="translate(-387.055 -415.31)" fill="#303030"/>
        </g>
      </g>
      <g id="Groupe_1999" data-name="Groupe 1999" transform="translate(44.221 46.898)">
        <g id="Groupe_1996" data-name="Groupe 1996" transform="translate(0 6.776)">
          <g id="Groupe_1995" data-name="Groupe 1995">
            <path id="Tracé_3112" data-name="Tracé 3112" d="M410.952,401.876a1.051,1.051,0,0,1-.743-.308l-12.752-12.752a1.052,1.052,0,1,1,1.487-1.487l12.008,12.008,10.966-10.966a1.052,1.052,0,0,1,1.487,1.487L411.7,401.568A1.052,1.052,0,0,1,410.952,401.876Z" transform="translate(-397.149 -387.02)" fill="#303030"/>
          </g>
        </g>
        <g id="Groupe_1998" data-name="Groupe 1998" transform="translate(12.727)">
          <g id="Groupe_1997" data-name="Groupe 1997">
            <path id="Tracé_3113" data-name="Tracé 3113" d="M416.348,398.99a1.051,1.051,0,0,1-1.052-1.052V378.411a1.052,1.052,0,1,1,2.1,0v19.527A1.052,1.052,0,0,1,416.348,398.99Z" transform="translate(-415.296 -377.359)" fill="#303030"/>
          </g>
        </g>
      </g>
    </g>
  </g>
</svg>
