<svg id="Groupe_2835" data-name="Groupe 2835" xmlns="http://www.w3.org/2000/svg" width="118.759" height="94.637" viewBox="0 0 118.759 94.637">
  <g id="Groupe_2529" data-name="Groupe 2529" transform="translate(0 0)">
    <path id="Tracé_3860" data-name="Tracé 3860" d="M294.509,1018.272l-93.44,33.059a2.742,2.742,0,0,1-3.489-1.665l-19.852-56.111a2.742,2.742,0,0,1,1.665-3.489l93.44-33.059a2.742,2.742,0,0,1,3.489,1.665l19.852,56.111A2.742,2.742,0,0,1,294.509,1018.272Z" transform="translate(-177.572 -956.851)" fill="#1a1818"/>
    <g id="Groupe_2525" data-name="Groupe 2525" transform="translate(25.46 44.63)">
      <path id="Tracé_3861" data-name="Tracé 3861" d="M317.271,1346.726l.279.79.607-.75,1.632,4.612.764-.27-1.926-5.443-.764.27Z" transform="translate(-317.271 -1319.433)" fill="#fff"/>
      <path id="Tracé_3862" data-name="Tracé 3862" d="M336.262,1341.832a2.754,2.754,0,0,0,.119-.724,1.8,1.8,0,0,0-.094-.645v0a1.633,1.633,0,0,0-.451-.7,1.243,1.243,0,0,0-.7-.3,2.014,2.014,0,0,0-.89.127,1.7,1.7,0,0,0-.7.443,1.479,1.479,0,0,0-.358.7,2.156,2.156,0,0,0,.008.9v0l.79-.279v0a.947.947,0,0,1,.054-.645.794.794,0,0,1,.47-.387.806.806,0,0,1,.606-.012.7.7,0,0,1,.37.438l0,.007a1.27,1.27,0,0,1,.063.469,1.99,1.99,0,0,1-.1.542l-1,3.2.234.663,3.07-1.086-.257-.726-2.059.729Z" transform="translate(-330.255 -1314.348)" fill="#fff"/>
      <path id="Tracé_3863" data-name="Tracé 3863" d="M357.549,1334.4a1.322,1.322,0,0,0,.469-.663,1.246,1.246,0,0,0-.031-.789l-.032-.09a1.464,1.464,0,0,0-.755-.908,1.6,1.6,0,0,0-1.22.015,1.663,1.663,0,0,0-.672.423,1.468,1.468,0,0,0-.355.669,2.1,2.1,0,0,0-.012.863l.775-.274a1.086,1.086,0,0,1,.021-.435.706.706,0,0,1,.181-.317.852.852,0,0,1,.322-.2.779.779,0,0,1,.588-.01.694.694,0,0,1,.361.433l.06.168a.813.813,0,0,1,.015.6.677.677,0,0,1-.427.366l-.386.137.257.726.385-.136a.757.757,0,0,1,.641.024.972.972,0,0,1,.422.561l.058.165a.8.8,0,0,1-.009.643.86.86,0,0,1-.516.41,1.159,1.159,0,0,1-.443.075.718.718,0,0,1-.369-.12.873.873,0,0,1-.281-.33l-.779.275a1.849,1.849,0,0,0,.537.667,1.455,1.455,0,0,0,.73.285,2.2,2.2,0,0,0,1.646-.593,1.285,1.285,0,0,0,.352-.7,1.779,1.779,0,0,0-.1-.877l-.032-.09a1.541,1.541,0,0,0-.552-.782A1.178,1.178,0,0,0,357.549,1334.4Z" transform="translate(-348.044 -1308.128)" fill="#fff"/>
      <path id="Tracé_3864" data-name="Tracé 3864" d="M385.205,1324.87l-.745.264.587,1.658-1.516.536.4-4.527-.786.278-.432,4.589.234.662,2.347-.83.3.839.745-.264-.3-.839.408-.144-.25-.708-.408.144Z" transform="translate(-370.789 -1300.736)" fill="#fff"/>
      <path id="Tracé_3865" data-name="Tracé 3865" d="M431.337,1306.37l.279.79.607-.75,1.632,4.612.764-.27-1.926-5.443-.764.27Z" transform="translate(-410.548 -1286.432)" fill="#fff"/>
      <path id="Tracé_3866" data-name="Tracé 3866" d="M450.327,1301.476a2.753,2.753,0,0,0,.119-.724,1.794,1.794,0,0,0-.093-.645v0a1.633,1.633,0,0,0-.451-.7,1.244,1.244,0,0,0-.7-.3,2.015,2.015,0,0,0-.89.127,1.705,1.705,0,0,0-.7.443,1.48,1.48,0,0,0-.358.7,2.157,2.157,0,0,0,.007.9v0l.79-.279v0a.947.947,0,0,1,.054-.645.794.794,0,0,1,.47-.387.809.809,0,0,1,.606-.012.7.7,0,0,1,.37.438l0,.008a1.267,1.267,0,0,1,.063.469,1.989,1.989,0,0,1-.1.542l-1,3.2.234.663,3.07-1.086-.257-.726-2.059.728Z" transform="translate(-423.532 -1281.347)" fill="#fff"/>
      <path id="Tracé_3867" data-name="Tracé 3867" d="M471.614,1294.047a1.325,1.325,0,0,0,.469-.663,1.247,1.247,0,0,0-.031-.79l-.032-.09a1.463,1.463,0,0,0-.755-.908,1.6,1.6,0,0,0-1.221.015,1.658,1.658,0,0,0-.672.423,1.465,1.465,0,0,0-.355.669,2.1,2.1,0,0,0-.012.864l.775-.274a1.083,1.083,0,0,1,.021-.435.705.705,0,0,1,.181-.317.849.849,0,0,1,.323-.2.78.78,0,0,1,.588-.01.693.693,0,0,1,.361.432l.06.169a.813.813,0,0,1,.015.6.677.677,0,0,1-.427.366l-.386.136.257.726.386-.136a.756.756,0,0,1,.64.024.972.972,0,0,1,.422.561l.058.165a.8.8,0,0,1-.008.643.861.861,0,0,1-.516.41,1.164,1.164,0,0,1-.443.075.72.72,0,0,1-.369-.12.874.874,0,0,1-.281-.33l-.779.275a1.847,1.847,0,0,0,.537.667,1.456,1.456,0,0,0,.73.285,2.2,2.2,0,0,0,1.646-.593,1.285,1.285,0,0,0,.352-.7,1.781,1.781,0,0,0-.1-.877l-.032-.09a1.54,1.54,0,0,0-.552-.782A1.177,1.177,0,0,0,471.614,1294.047Z" transform="translate(-441.321 -1275.126)" fill="#fff"/>
      <path id="Tracé_3868" data-name="Tracé 3868" d="M499.271,1284.513l-.745.264.587,1.658-1.516.536.4-4.527-.786.278-.432,4.588.234.663,2.347-.831.3.839.745-.264-.3-.839.408-.144-.25-.708-.408.144Z" transform="translate(-464.065 -1267.734)" fill="#fff"/>
      <path id="Tracé_3869" data-name="Tracé 3869" d="M545.4,1266.013l.279.79.607-.75,1.632,4.612.764-.27-1.926-5.443-.764.27Z" transform="translate(-503.825 -1253.43)" fill="#fff"/>
      <path id="Tracé_3870" data-name="Tracé 3870" d="M564.393,1261.12a2.748,2.748,0,0,0,.119-.724,1.8,1.8,0,0,0-.093-.645v0a1.631,1.631,0,0,0-.451-.7,1.242,1.242,0,0,0-.7-.3,2.013,2.013,0,0,0-.89.128,1.7,1.7,0,0,0-.7.443,1.478,1.478,0,0,0-.359.7,2.158,2.158,0,0,0,.008.9l0,0,.79-.28v0a.947.947,0,0,1,.054-.645.8.8,0,0,1,.47-.387.808.808,0,0,1,.606-.012.7.7,0,0,1,.37.438l0,.007a1.269,1.269,0,0,1,.063.469,2.008,2.008,0,0,1-.1.542l-1,3.2.235.663,3.07-1.086-.257-.726-2.059.729Z" transform="translate(-516.809 -1248.346)" fill="#fff"/>
      <path id="Tracé_3871" data-name="Tracé 3871" d="M585.679,1253.691a1.326,1.326,0,0,0,.469-.663,1.249,1.249,0,0,0-.031-.79l-.032-.09a1.465,1.465,0,0,0-.755-.908,1.6,1.6,0,0,0-1.221.015,1.662,1.662,0,0,0-.672.423,1.467,1.467,0,0,0-.355.669,2.1,2.1,0,0,0-.012.864l.775-.274a1.089,1.089,0,0,1,.021-.435.705.705,0,0,1,.181-.317.844.844,0,0,1,.322-.2.779.779,0,0,1,.588-.01.694.694,0,0,1,.361.432l.06.169a.813.813,0,0,1,.015.6.678.678,0,0,1-.427.366l-.386.136.257.726.386-.137a.756.756,0,0,1,.64.024.971.971,0,0,1,.422.561l.058.165a.8.8,0,0,1-.008.643.862.862,0,0,1-.516.41,1.161,1.161,0,0,1-.443.075.717.717,0,0,1-.369-.12.875.875,0,0,1-.281-.33l-.779.276a1.847,1.847,0,0,0,.537.667,1.456,1.456,0,0,0,.73.285,2.2,2.2,0,0,0,1.646-.593,1.285,1.285,0,0,0,.352-.7,1.783,1.783,0,0,0-.1-.877l-.032-.09a1.539,1.539,0,0,0-.552-.782A1.175,1.175,0,0,0,585.679,1253.691Z" transform="translate(-534.598 -1242.125)" fill="#fff"/>
      <path id="Tracé_3872" data-name="Tracé 3872" d="M613.336,1244.157l-.745.264.587,1.658-1.516.536.4-4.527-.786.278-.432,4.588.234.663,2.347-.831.3.839.745-.263-.3-.839.408-.145-.25-.708-.408.145Z" transform="translate(-557.342 -1234.733)" fill="#fff"/>
      <path id="Tracé_3873" data-name="Tracé 3873" d="M659.467,1225.657l.279.79.607-.75,1.632,4.612.764-.27-1.926-5.443-.764.27Z" transform="translate(-597.102 -1220.429)" fill="#fff"/>
      <path id="Tracé_3874" data-name="Tracé 3874" d="M678.458,1220.764a2.738,2.738,0,0,0,.119-.724,1.8,1.8,0,0,0-.093-.645v0a1.63,1.63,0,0,0-.451-.7,1.241,1.241,0,0,0-.7-.3,2.011,2.011,0,0,0-.89.128,1.7,1.7,0,0,0-.7.443,1.48,1.48,0,0,0-.358.7,2.155,2.155,0,0,0,.007.9v0l.79-.279v0a.947.947,0,0,1,.054-.645.794.794,0,0,1,.47-.387.806.806,0,0,1,.606-.012.7.7,0,0,1,.37.438l0,.007a1.273,1.273,0,0,1,.063.469,2.005,2.005,0,0,1-.1.542l-1,3.2.235.663,3.07-1.086-.257-.726-2.059.728Z" transform="translate(-610.086 -1215.344)" fill="#fff"/>
      <path id="Tracé_3875" data-name="Tracé 3875" d="M699.745,1213.335a1.322,1.322,0,0,0,.469-.663,1.246,1.246,0,0,0-.031-.79l-.032-.09a1.465,1.465,0,0,0-.755-.908,1.6,1.6,0,0,0-1.22.015,1.662,1.662,0,0,0-.672.423,1.469,1.469,0,0,0-.355.669,2.1,2.1,0,0,0-.012.864l.775-.274a1.085,1.085,0,0,1,.021-.435.707.707,0,0,1,.181-.317.849.849,0,0,1,.322-.2.781.781,0,0,1,.588-.01.7.7,0,0,1,.361.432l.06.168a.812.812,0,0,1,.015.6.677.677,0,0,1-.427.366l-.385.137.257.726.386-.136a.756.756,0,0,1,.641.024.972.972,0,0,1,.421.561l.058.165a.8.8,0,0,1-.008.643.862.862,0,0,1-.516.41,1.162,1.162,0,0,1-.443.075.72.72,0,0,1-.369-.12.874.874,0,0,1-.281-.33l-.779.275a1.852,1.852,0,0,0,.537.667,1.454,1.454,0,0,0,.731.285,2.2,2.2,0,0,0,1.646-.593,1.285,1.285,0,0,0,.352-.7,1.777,1.777,0,0,0-.1-.877l-.032-.09a1.541,1.541,0,0,0-.553-.782A1.178,1.178,0,0,0,699.745,1213.335Z" transform="translate(-627.875 -1209.124)" fill="#fff"/>
      <path id="Tracé_3876" data-name="Tracé 3876" d="M728.4,1205.315l-.408.144-.587-1.658-.745.264.587,1.658-1.516.536.4-4.527-.786.278-.432,4.588.234.662,2.347-.83.3.839.745-.264-.3-.839.408-.144Z" transform="translate(-650.619 -1201.732)" fill="#fff"/>
    </g>
    <g id="Groupe_2526" data-name="Groupe 2526" transform="translate(12.345 23.684)">
      <path id="Tracé_3877" data-name="Tracé 3877" d="M246.177,1172.458a1.131,1.131,0,0,1,.781-.987,1.155,1.155,0,0,1,.519-.057,1.278,1.278,0,0,1,.517.176,1.329,1.329,0,0,1,.412.383l.808-.286a2.334,2.334,0,0,0-.679-.747,1.988,1.988,0,0,0-.886-.345,2.047,2.047,0,0,0-.962.108,2.1,2.1,0,0,0-.934.624,1.877,1.877,0,0,0-.425.979,2.528,2.528,0,0,0,.146,1.188l.546,1.542a2.528,2.528,0,0,0,.633,1.015,1.864,1.864,0,0,0,.946.492,2.113,2.113,0,0,0,1.118-.1,2.039,2.039,0,0,0,.812-.52,2.006,2.006,0,0,0,.473-.826,2.313,2.313,0,0,0,.061-1.009l-.808.286a1.3,1.3,0,0,1-.073.574,1.2,1.2,0,0,1-.292.452,1.224,1.224,0,0,1-.444.274,1.166,1.166,0,0,1-.661.049,1.151,1.151,0,0,1-.566-.323,1.7,1.7,0,0,1-.389-.645l-.546-1.542A1.7,1.7,0,0,1,246.177,1172.458Z" transform="translate(-245.308 -1155.309)" fill="#fff"/>
      <path id="Tracé_3878" data-name="Tracé 3878" d="M273.484,1163.641a1.511,1.511,0,0,0,.372-.773,2,2,0,0,0-.6-1.7,1.5,1.5,0,0,0-.774-.368,1.872,1.872,0,0,0-.927.1l-1.441.51-.445.157-.344.122,1.989,5.623.788-.279-.841-2.377,1.174-.415,2.04,1.952.935-.331-2.168-2A1.678,1.678,0,0,0,273.484,1163.641Zm-3.106-1.484,1.472-.521a.781.781,0,0,1,.438-.033.76.76,0,0,1,.375.213,1.225,1.225,0,0,1,.324.916.754.754,0,0,1-.16.4.783.783,0,0,1-.36.249L271,1163.9Z" transform="translate(-264.948 -1147.293)" fill="#fff"/>
      <path id="Tracé_3879" data-name="Tracé 3879" d="M298.024,1149.914l-.383.135,1.988,5.619.383-.135.406-.143,2.821-1-.265-.75-2.821,1-.589-1.666,2.4-.848-.265-.75-2.4.848-.6-1.7,2.821-1-.265-.75-2.821,1Z" transform="translate(-288.103 -1137.479)" fill="#fff"/>
      <path id="Tracé_3880" data-name="Tracé 3880" d="M326.615,1142.124a2.749,2.749,0,0,0-1.239.173l-.993.351-.255.09-.533.188,1.988,5.619.533-.189.255-.09.989-.35a2.765,2.765,0,0,0,1.074-.646,1.742,1.742,0,0,0,.489-.947,2.347,2.347,0,0,0-.134-1.179l-.563-1.592a2.35,2.35,0,0,0-.637-1A1.744,1.744,0,0,0,326.615,1142.124Zm1.377,3.339a1.262,1.262,0,0,1-.02,1.031,1.432,1.432,0,0,1-.85.664l-1.016.359-1.458-4.12,1.016-.359a1.432,1.432,0,0,1,1.078-.019,1.263,1.263,0,0,1,.664.789Z" transform="translate(-309.327 -1132.03)" fill="#fff"/>
      <rect id="Rectangle_1035" data-name="Rectangle 1035" width="0.836" height="5.96" transform="translate(19.384 9.087) rotate(-19.483)" fill="#fff"/>
      <path id="Tracé_3881" data-name="Tracé 3881" d="M361.351,1127.788l1.588-.562,1.723,4.869.788-.279-1.723-4.869,1.588-.562-.265-.75-3.965,1.4Z" transform="translate(-339.985 -1118.559)" fill="#fff"/>
      <path id="Tracé_3882" data-name="Tracé 3882" d="M401.184,1117.617a1.17,1.17,0,0,1,.237-.608,1.2,1.2,0,0,1,1.063-.437,1.275,1.275,0,0,1,.517.176,1.329,1.329,0,0,1,.411.383l.808-.286a2.329,2.329,0,0,0-.679-.747,1.988,1.988,0,0,0-.885-.345,2.045,2.045,0,0,0-.962.108,2.1,2.1,0,0,0-.934.624,1.878,1.878,0,0,0-.425.979,2.527,2.527,0,0,0,.146,1.188l.546,1.542a2.524,2.524,0,0,0,.633,1.015,1.864,1.864,0,0,0,.946.492,2.114,2.114,0,0,0,1.118-.1,2.039,2.039,0,0,0,.812-.52,2.006,2.006,0,0,0,.473-.826,2.316,2.316,0,0,0,.061-1.009l-.808.286a1.3,1.3,0,0,1-.073.574,1.2,1.2,0,0,1-.293.451,1.217,1.217,0,0,1-.444.275,1.169,1.169,0,0,1-.661.049,1.152,1.152,0,0,1-.567-.323,1.7,1.7,0,0,1-.389-.645l-.546-1.542A1.7,1.7,0,0,1,401.184,1117.617Z" transform="translate(-372.065 -1110.463)" fill="#fff"/>
      <path id="Tracé_3883" data-name="Tracé 3883" d="M431.513,1107.216l-.083,6.352.85-.3-.013-1.383,2.268-.8.86,1.083.85-.3-4.059-4.886Zm.747,3.828-.026-2.861,1.779,2.241Z" transform="translate(-397.509 -1103.301)" fill="#fff"/>
      <path id="Tracé_3884" data-name="Tracé 3884" d="M455.76,1099.151a1.51,1.51,0,0,0,.372-.773,2,2,0,0,0-.6-1.7,1.5,1.5,0,0,0-.774-.368,1.871,1.871,0,0,0-.927.1l-1.441.51-.445.157-.344.122,1.989,5.623.788-.279-.841-2.376,1.174-.415,2.04,1.953.935-.331-2.168-2A1.683,1.683,0,0,0,455.76,1099.151Zm-3.106-1.484,1.472-.521a.779.779,0,0,1,.438-.033.761.761,0,0,1,.375.213,1.225,1.225,0,0,1,.324.916.757.757,0,0,1-.16.4.781.781,0,0,1-.36.249l-1.472.521Z" transform="translate(-414.003 -1094.557)" fill="#fff"/>
      <path id="Tracé_3885" data-name="Tracé 3885" d="M483.91,1087.247a1.745,1.745,0,0,0-.974-.429,2.754,2.754,0,0,0-1.239.173l-.993.351-.255.09-.533.189,1.988,5.619.533-.189.255-.09.989-.35a2.765,2.765,0,0,0,1.074-.645,1.741,1.741,0,0,0,.489-.947,2.348,2.348,0,0,0-.134-1.178l-.563-1.593A2.349,2.349,0,0,0,483.91,1087.247Zm.4,2.91a1.263,1.263,0,0,1-.02,1.031,1.433,1.433,0,0,1-.85.664l-1.016.359-1.458-4.12,1.016-.359a1.432,1.432,0,0,1,1.078-.018,1.263,1.263,0,0,1,.664.789Z" transform="translate(-437.159 -1086.803)" fill="#fff"/>
    </g>
    <g id="Groupe_2527" data-name="Groupe 2527" transform="translate(29.729 69.509)">
      <path id="Tracé_3886" data-name="Tracé 3886" d="M343.494,1402.2l-2.388-1.879-.412.146,1.146,3.239.45-.159-.843-2.384,2.37,1.844.417-.148-1.146-3.238-.45.159Z" transform="translate(-340.694 -1388.433)" fill="#fff"/>
      <path id="Tracé_3887" data-name="Tracé 3887" d="M362.613,1395.817l-.048,3.663.49-.174-.007-.8,1.308-.463.5.625.49-.174L363,1395.68Zm.431,2.208-.015-1.65,1.026,1.292Z" transform="translate(-358.579 -1385.213)" fill="#fff"/>
      <path id="Tracé_3888" data-name="Tracé 3888" d="M376.337,1389.688l-1.709-1.8-.426.151,1.147,3.24.444-.157-.775-2.19,1.391,1.465.316-.112.145-2.057.79,2.233.444-.157-1.147-3.24-.426.151Z" transform="translate(-368.095 -1378.165)" fill="#fff"/>
      <path id="Tracé_3889" data-name="Tracé 3889" d="M393.941,1382.121l-.221.078,1.147,3.241.221-.078.234-.083,1.627-.576-.153-.432-1.627.576-.34-.961,1.382-.489-.153-.432-1.382.489-.348-.983,1.627-.576-.153-.432-1.627.576Z" transform="translate(-384.056 -1373.586)" fill="#fff"/>
      <path id="Tracé_3890" data-name="Tracé 3890" d="M418.607,1376.459a2.854,2.854,0,0,0-.542.031l-.026,0-.026,0-.018,0-.018,0a3.816,3.816,0,0,1-.427.045.611.611,0,0,1-.286-.058.38.38,0,0,1-.188-.229v0a.463.463,0,0,1,.051-.441.924.924,0,0,1,.469-.315,1.118,1.118,0,0,1,.393-.062,1.6,1.6,0,0,1,.441.073l.131-.453a2.016,2.016,0,0,0-.389-.074,1.782,1.782,0,0,0-.372.005,1.638,1.638,0,0,0-.355.083,1.661,1.661,0,0,0-.582.331.9.9,0,0,0-.279.464,1,1,0,0,0,.047.562v0a.9.9,0,0,0,.332.478.793.793,0,0,0,.44.133,3.7,3.7,0,0,0,.574-.061l.036-.005.015,0,.015,0a2.691,2.691,0,0,1,.391-.039.558.558,0,0,1,.279.067.413.413,0,0,1,.183.237v0a.445.445,0,0,1-.063.437,1.032,1.032,0,0,1-.5.323,1.5,1.5,0,0,1-.512.091,1.364,1.364,0,0,1-.493-.1l-.16.448a1.752,1.752,0,0,0,.419.1,1.772,1.772,0,0,0,.438,0,2.265,2.265,0,0,0,.459-.113,1.776,1.776,0,0,0,.6-.338.927.927,0,0,0,.293-.465.947.947,0,0,0-.039-.557v0a.9.9,0,0,0-.311-.456A.814.814,0,0,0,418.607,1376.459Z" transform="translate(-402.735 -1368.285)" fill="#fff"/>
      <path id="Tracé_3891" data-name="Tracé 3891" d="M432.663,1370.455a.825.825,0,0,1,.015.612.7.7,0,0,1-.439.373.69.69,0,0,1-.572-.016.827.827,0,0,1-.372-.485l-.737-2.084-.455.161.732,2.068a1.546,1.546,0,0,0,.364.6.987.987,0,0,0,.535.275,1.5,1.5,0,0,0,1.231-.436.985.985,0,0,0,.244-.551,1.547,1.547,0,0,0-.1-.7l-.732-2.068-.455.161Z" transform="translate(-413.808 -1362.75)" fill="#fff"/>
      <path id="Tracé_3892" data-name="Tracé 3892" d="M448.909,1365.582a.868.868,0,0,0,.215-.446,1.153,1.153,0,0,0-.347-.983.861.861,0,0,0-.446-.212,1.078,1.078,0,0,0-.535.059l-.831.294-.256.091-.2.07,1.147,3.243.455-.161-.485-1.371.677-.24,1.177,1.126.539-.191-1.254-1.158A.964.964,0,0,0,448.909,1365.582Zm-1.791-.856.849-.3a.448.448,0,0,1,.253-.019.438.438,0,0,1,.217.123.706.706,0,0,1,.187.528.436.436,0,0,1-.092.232.452.452,0,0,1-.208.144l-.849.3Z" transform="translate(-427.225 -1359.249)" fill="#fff"/>
      <path id="Tracé_3893" data-name="Tracé 3893" d="M465.641,1358.982l-2.388-1.879-.412.146,1.146,3.238.45-.159-.843-2.384,2.37,1.844.417-.148-1.146-3.238-.45.159Z" transform="translate(-440.579 -1353.093)" fill="#fff"/>
      <path id="Tracé_3894" data-name="Tracé 3894" d="M484.76,1352.6l-.048,3.664.49-.174-.007-.8,1.308-.463.5.625.49-.173-2.341-2.818Zm.43,2.208-.015-1.65,1.026,1.292Z" transform="translate(-458.465 -1349.874)" fill="#fff"/>
      <path id="Tracé_3895" data-name="Tracé 3895" d="M498.483,1346.473l-1.709-1.8-.426.151,1.147,3.241.443-.157-.775-2.19,1.391,1.465.317-.112.145-2.058.79,2.233.444-.157-1.147-3.241-.426.151Z" transform="translate(-467.981 -1342.825)" fill="#fff"/>
      <path id="Tracé_3896" data-name="Tracé 3896" d="M518.1,1338.679l-.153-.432-1.627.576-.234.083-.221.078,1.147,3.241.221-.078.234-.083,1.627-.576-.153-.432-1.627.576-.34-.961,1.382-.489-.153-.432-1.382.489-.348-.983Z" transform="translate(-483.942 -1338.247)" fill="#fff"/>
    </g>
    <ellipse id="Ellipse_155" data-name="Ellipse 155" cx="4.532" cy="4.532" rx="4.532" ry="4.532" transform="translate(79.772 14.814) rotate(-9.38)" fill="#6d6f72"/>
    <path id="Tracé_3897" data-name="Tracé 3897" d="M658.588,1023.084a4.509,4.509,0,0,0-1.747,1.128,5.645,5.645,0,0,1,2.7,7.638,4.53,4.53,0,1,0-.955-8.766Z" transform="translate(-569.495 -1010.8)" fill="#c7c9cb"/>
    <path id="Tracé_3898" data-name="Tracé 3898" d="M592.961,1049.1a5.634,5.634,0,0,1,.264-4.39,4.532,4.532,0,1,0,2.7,7.638A5.636,5.636,0,0,1,592.961,1049.1Z" transform="translate(-513.311 -1028.672)" fill="#c7c9cb"/>
    <path id="Tracé_3899" data-name="Tracé 3899" d="M331.472,1233.86a3.6,3.6,0,1,0,4.6,2.2A3.609,3.609,0,0,0,331.472,1233.86Z" transform="translate(-301.459 -1183.206)" fill="#c7c9cb"/>
    <g id="Groupe_2528" data-name="Groupe 2528" transform="translate(18.407 43.521)">
      <path id="Tracé_3900" data-name="Tracé 3900" d="M286.924,1207.242a4.579,4.579,0,0,1,8.584-3.037l6.555-2.319-1.669-4.719a2.281,2.281,0,0,0-2.9-1.386l-17.405,6.158a2.281,2.281,0,0,0-1.386,2.9l1.669,4.719Z" transform="translate(-278.571 -1195.652)" fill="#6d6f72"/>
      <path id="Tracé_3901" data-name="Tracé 3901" d="M305.365,1237.217a4.579,4.579,0,0,1-8.584,3.037l-6.555,2.319,1.669,4.719a2.281,2.281,0,0,0,2.9,1.386l17.405-6.158a2.281,2.281,0,0,0,1.386-2.9l-1.669-4.719Z" transform="translate(-288.102 -1227.745)" fill="#6d6f72"/>
    </g>
  </g>
</svg>
