<svg xmlns="http://www.w3.org/2000/svg" width="49.811" height="39.844" viewBox="0 0 49.811 39.844">
  <path id="Icon_awesome-hands-helping" data-name="Icon awesome-hands-helping" d="M37.98,14.943H26.15V19.3a5.6,5.6,0,1,1-11.207,0V9.837L9.892,12.873a4.97,4.97,0,0,0-2.42,4.265v3.681l-6.226,3.6a2.485,2.485,0,0,0-.911,3.4L6.561,38.6a2.491,2.491,0,0,0,3.4.911l8.047-4.646H28.641a4.986,4.986,0,0,0,4.981-4.981h1.245a2.488,2.488,0,0,0,2.49-2.49V22.414h.623a1.863,1.863,0,0,0,1.868-1.868V16.811A1.863,1.863,0,0,0,37.98,14.943Zm11.5-2.911L43.249,1.245a2.491,2.491,0,0,0-3.4-.911L31.8,4.981H23.847a5.018,5.018,0,0,0-2.638.755L18.6,7.362a2.474,2.474,0,0,0-1.167,2.109V19.3a3.113,3.113,0,1,0,6.226,0V12.452H37.98a4.361,4.361,0,0,1,4.358,4.358v2.218l6.226-3.6a2.493,2.493,0,0,0,.911-3.4Z" transform="translate(0.002 -0.002)" fill="#facd89"/>
</svg>
