<svg id="XMLID_90_" xmlns="http://www.w3.org/2000/svg" width="136.054" height="82.338" viewBox="0 0 136.054 82.338">
  <g id="XMLID_62_" transform="translate(0 24.129)">
    <g id="XMLID_61_">
      <rect id="XMLID_2_" width="22.743" height="11.785" transform="translate(103.374 38.657)" fill="#a01117"/>
      <g id="XMLID_6_">
        <rect id="XMLID_51_" width="81.092" height="1.875" transform="translate(1.721 48.034)" fill="#333334"/>
        <g id="XMLID_1_">
          <path id="XMLID_55_" d="M360.57,475H279.1v41.68h81.47V486.351l16.347-2.491V475Z" transform="translate(-277.379 -475)" fill="#bf1d25" fill-rule="evenodd"/>
          <path id="XMLID_3_" d="M858.238,577.9h14.738a7.061,7.061,0,0,1,4.675,1.624l15.367,12.107a35.03,35.03,0,0,1,15.284,6.676c1.554,1.218,1.428,3.457,1.582,5.248.91.252,1.33.714,1.428,1.3,0,2.169-.014,4.129-.014,6.3,0,.91-.028,1.3-.49,1.722a7.948,7.948,0,0,1-5.542,2.421h-5.486a9.467,9.467,0,0,0,.112-1.414,9.153,9.153,0,0,0-18.307,0,9.467,9.467,0,0,0,.112,1.414H858Z" transform="translate(-775.256 -563.498)" fill="#d4222b" fill-rule="evenodd"/>
          <path id="XMLID_4_" d="M1146.208,751.481c.91.252,1.329.714,1.427,1.3,0,2.169-.014,4.129-.014,6.3,0,.91-.028,1.3-.49,1.722a7.948,7.948,0,0,1-5.542,2.421H1136.1a9.462,9.462,0,0,0,.112-1.414,9.113,9.113,0,0,0-3.415-7.124h0l4.619-4.787.28.462c.322.532.518,1.134,1.134,1.134h7.376Z" transform="translate(-1011.596 -711.425)" fill="#3d3d3e" fill-rule="evenodd"/>
          <path id="XMLID_145_" d="M1153.692,719.8c-.63,0-1.456.6-1.134,1.134l1.652,2.785a11.632,11.632,0,0,1,2.771-1.078c-.014-.952-.014-1.9-.028-2.841Z" transform="translate(-1028.526 -685.538)" fill="#da6820" fill-rule="evenodd"/>
          <path id="XMLID_148_" d="M1190.152,722.053a3.419,3.419,0,0,0-1.134-1.708c-.238-.182-.476-.364-.728-.546H1184.4c0,.938.014,1.889.028,2.841A22.476,22.476,0,0,1,1190.152,722.053Z" transform="translate(-1055.974 -685.538)" fill="#cdcfd0" fill-rule="evenodd"/>
          <path id="XMLID_146_" d="M1167.471,740.1a11.63,11.63,0,0,0-2.771,1.078l.434.742c.322.532.518,1.134,1.134,1.134h1.19C1167.485,742.073,1167.485,741.08,1167.471,740.1Z" transform="translate(-1039.031 -702.997)" fill="#ee8322" fill-rule="evenodd"/>
          <path id="XMLID_149_" d="M1190.238,735.894a22.645,22.645,0,0,0-5.738.588c.014.98.014,1.973,0,2.953h6.172A15.307,15.307,0,0,0,1190.238,735.894Z" transform="translate(-1056.06 -699.378)" fill="#e4e5e6" fill-rule="evenodd"/>
          <g id="XMLID_5_" transform="translate(107.586 42.338)">
            <path id="XMLID_143_" d="M1043.436,777.5a7.936,7.936,0,1,0,7.936,7.936A7.938,7.938,0,0,0,1043.436,777.5Zm0,12.96a5.025,5.025,0,1,1,5.011-5.025A5.029,5.029,0,0,1,1043.436,790.46Z" transform="translate(-1035.5 -777.5)" fill="#3d3d3e"/>
            <path id="XMLID_150_" d="M1061.324,798.4a5.025,5.025,0,1,0,5.01,5.025A5.029,5.029,0,0,0,1061.324,798.4Zm4.423,5.738a4.541,4.541,0,0,1-.966,2.141,3.2,3.2,0,0,1-.294.322,5.044,5.044,0,0,1-.406.364,4.472,4.472,0,0,1-5.752-.2c-.056-.056-.112-.1-.168-.154-.1-.1-.2-.21-.294-.322a4.349,4.349,0,0,1-.966-2.141,4.515,4.515,0,0,1,.84-3.415,4.429,4.429,0,0,1,.42-.476,1.659,1.659,0,0,1,.168-.154,4.472,4.472,0,0,1,5.752-.2,5.044,5.044,0,0,1,.406.364,4.4,4.4,0,0,1,1.26,3.863Z" transform="translate(-1053.389 -795.475)" fill="#c9cacc"/>
            <path id="XMLID_153_" d="M1067.425,803.142a4.472,4.472,0,0,0-5.752.2c-.056.056-.112.1-.168.154a4.412,4.412,0,0,0-1.26,3.891,4.539,4.539,0,0,0,.966,2.141c.1.112.182.21.294.322a1.678,1.678,0,0,0,.168.154,4.472,4.472,0,0,0,5.752.2,4.97,4.97,0,0,0,.406-.364c.1-.1.2-.21.294-.322a4.351,4.351,0,0,0,.966-2.141,4.516,4.516,0,0,0-.84-3.415,4.43,4.43,0,0,0-.42-.476C1067.7,803.38,1067.565,803.254,1067.425,803.142Zm-2.757,6.718a3.177,3.177,0,1,1,3.177-3.177A3.184,3.184,0,0,1,1064.668,809.86Zm1.078-6.844a.411.411,0,0,1,.574-.126l.588.308a.391.391,0,1,1-.364.686l-.588-.308A.443.443,0,0,1,1065.745,803.016Zm-2.435.63-.574.336a.412.412,0,0,1-.574-.112.417.417,0,0,1,.182-.56l.574-.336a.392.392,0,1,1,.392.672Zm-2.3,3.723a.423.423,0,0,1-.378-.448l.014-.658a.388.388,0,1,1,.77.014l-.014.658A.4.4,0,0,1,1061.015,807.369Zm3,3a.418.418,0,0,1-.56.182l-.6-.266a.392.392,0,1,1,.308-.714l.616.266A.425.425,0,0,1,1064.01,810.364Zm2.379-.84.546-.378a.429.429,0,0,1,.588.056.423.423,0,0,1-.14.574l-.546.378a.429.429,0,0,1-.588-.056A.42.42,0,0,1,1066.389,809.524Zm1.959-3.9a.409.409,0,0,1,.406.42l.042.658a.415.415,0,0,1-.364.462.409.409,0,0,1-.406-.42l-.042-.658A.436.436,0,0,1,1068.349,805.619Z" transform="translate(-1056.732 -798.733)" fill="#8f9194"/>
            <path id="XMLID_162_" d="M1072.677,811.5a3.177,3.177,0,1,0,3.177,3.177A3.184,3.184,0,0,0,1072.677,811.5Zm0,5.164a1.973,1.973,0,1,1,1.974-1.973A1.971,1.971,0,0,1,1072.677,816.665Z" transform="translate(-1064.741 -806.741)" fill="#c9cacc"/>
            <path id="XMLID_165_" d="M1080.073,820.2a1.973,1.973,0,1,0,1.974,1.973A1.971,1.971,0,0,0,1080.073,820.2Zm.938.784a.188.188,0,1,1,0,.266A.195.195,0,0,1,1081.011,820.984Zm-.91,2.9a.191.191,0,0,1-.2-.2.2.2,0,1,1,.392,0A.211.211,0,0,1,1080.1,823.881Zm0-3.387a.2.2,0,0,1,0,.392.2.2,0,0,1,0-.392Zm-.028,2.673a.994.994,0,1,1,.994-.994A1,1,0,0,1,1080.073,823.167Zm-.868-1.945a.188.188,0,1,1,.014-.266A.172.172,0,0,1,1079.206,821.222Zm-.6,1.176a.191.191,0,0,1-.2-.2.2.2,0,1,1,.2.2Zm.574.994a.2.2,0,0,1-.266,0,.172.172,0,0,1,0-.266.188.188,0,0,1,.266.266Zm1.805-.252a.182.182,0,0,1,.266.014.2.2,0,1,1-.294.266A.215.215,0,0,1,1080.983,823.139Zm.42-.966a.2.2,0,1,1,.2.2A.21.21,0,0,1,1081.4,822.173Z" transform="translate(-1072.138 -814.224)" fill="#e4e5e6"/>
            <path id="XMLID_176_" d="M1086.094,827.2a.994.994,0,1,0,.994.994A1,1,0,0,0,1086.094,827.2Zm0,1.61a.612.612,0,0,1-.616-.616.616.616,0,1,1,.616.616Z" transform="translate(-1078.158 -820.244)" fill="#8f9194"/>
            <path id="XMLID_177_" d="M1088.416,829.8a.612.612,0,0,0-.616.616.616.616,0,1,0,.616-.616Z" transform="translate(-1080.48 -822.48)" fill="#3d3d3e"/>
            <path id="XMLID_178_" d="M1064.17,829.306l.014-.658a.389.389,0,1,0-.77-.014l-.014.658a.423.423,0,0,0,.378.448A.4.4,0,0,0,1064.17,829.306Z" transform="translate(-1059.495 -821.104)" fill="#616264"/>
            <path id="XMLID_179_" d="M1074.75,807.46l-.574.336a.392.392,0,1,0,.392.672l.574-.336a.417.417,0,0,0,.182-.56A.4.4,0,0,0,1074.75,807.46Z" transform="translate(-1068.564 -803.205)" fill="#616264"/>
            <path id="XMLID_180_" d="M1099.875,807.432l.588.308a.391.391,0,1,0,.364-.686l-.588-.308a.427.427,0,0,0-.574.126A.434.434,0,0,0,1099.875,807.432Z" transform="translate(-1090.652 -802.603)" fill="#616264"/>
            <path id="XMLID_181_" d="M1116.037,827.815a.418.418,0,0,0,.406.42.425.425,0,0,0,.364-.462l-.042-.658a.409.409,0,0,0-.406-.42.425.425,0,0,0-.364.462Z" transform="translate(-1104.728 -819.809)" fill="#616264"/>
            <path id="XMLID_182_" d="M1103.7,852.329l.546-.378a.42.42,0,0,0,.14-.574.414.414,0,0,0-.588-.056l-.546.378a.42.42,0,0,0-.14.574A.427.427,0,0,0,1103.7,852.329Z" transform="translate(-1093.594 -840.909)" fill="#616264"/>
            <path id="XMLID_183_" d="M1078.3,854.914l-.616-.266a.392.392,0,1,0-.308.714l.6.266a.418.418,0,0,0,.56-.182A.4.4,0,0,0,1078.3,854.914Z" transform="translate(-1071.279 -843.815)" fill="#616264"/>
            <path id="XMLID_184_" d="M1091.2,822.592a.2.2,0,0,0,.2-.2.2.2,0,1,0-.2.2Z" transform="translate(-1083.232 -815.944)" fill="#616264"/>
            <path id="XMLID_185_" d="M1091.2,843.7a.191.191,0,0,0-.2.2.2.2,0,1,0,.2-.2Z" transform="translate(-1083.232 -834.435)" fill="#616264"/>
            <path id="XMLID_186_" d="M1102.092,833a.2.2,0,1,0-.2.2A.191.191,0,0,0,1102.092,833Z" transform="translate(-1092.435 -825.06)" fill="#616264"/>
            <path id="XMLID_187_" d="M1080.4,833.1a.2.2,0,1,0,.2.2A.191.191,0,0,0,1080.4,833.1Z" transform="translate(-1073.944 -825.318)" fill="#616264"/>
            <path id="XMLID_188_" d="M1098.683,841.181a.2.2,0,0,0,.014-.28.183.183,0,0,0-.266-.014.213.213,0,0,0-.014.28A.194.194,0,0,0,1098.683,841.181Z" transform="translate(-1089.572 -831.972)" fill="#616264"/>
            <path id="XMLID_189_" d="M1083.8,825.177a.188.188,0,0,0,.252.28.2.2,0,0,0,.014-.28A.2.2,0,0,0,1083.8,825.177Z" transform="translate(-1076.986 -818.459)" fill="#616264"/>
            <path id="XMLID_190_" d="M1083.478,840.666a.188.188,0,0,0,.266.266.188.188,0,1,0-.266-.266Z" transform="translate(-1076.717 -831.778)" fill="#616264"/>
            <path id="XMLID_191_" d="M1098.943,825.743a.188.188,0,1,0-.266,0A.172.172,0,0,0,1098.943,825.743Z" transform="translate(-1089.79 -818.718)" fill="#616264"/>
          </g>
          <rect id="XMLID_95_" width="97.383" height="2.197" transform="translate(1.721)" fill="#a01117"/>
          <rect id="XMLID_96_" width="81.036" height="6.354" transform="translate(1.721 41.68)" fill="#4a4b4c"/>
          <path id="XMLID_97_" d="M268.522,770.1h-.938a.783.783,0,0,0-.784.784v3.037a.782.782,0,0,0,.784.784h.938Z" transform="translate(-266.8 -728.798)" fill="#e41e26" fill-rule="evenodd"/>
          <rect id="XMLID_98_" width="81.092" height="3.723" transform="translate(1.721 36.123)" fill="#a01117"/>
          <path id="XMLID_195_" d="M1080.008,709.6h2.757a.31.31,0,0,1,.308.308v.6a.311.311,0,0,1-.308.308h-2.757a.311.311,0,0,1-.308-.308v-.6a.311.311,0,0,1,.308-.308Z" transform="translate(-965.927 -676.766)" fill="#ee8322" fill-rule="evenodd"/>
          <path id="XMLID_196_" d="M887.406,699.4h4.213a.406.406,0,0,1,.406.406v.742a.406.406,0,0,1-.406.406h-4.213a.406.406,0,0,1-.406-.406v-.742a.406.406,0,0,1,.406-.406Z" transform="translate(-800.198 -667.993)" fill="#e4e5e6" fill-rule="evenodd"/>
          <path id="XMLID_199_" d="M680.919,786.9h15.829c.994,0,1.819,1.232,1.819,2.729v4.689c0,1.5-.812,2.729-1.819,2.729H680.919c-.994,0-1.82-1.232-1.82-2.729v-4.689c0-1.5.826-2.729,1.82-2.729Z" transform="translate(-621.395 -743.247)" fill="#a01117" fill-rule="evenodd"/>
          <g id="XMLID_7_" transform="translate(9.783 42.338)">
            <path id="XMLID_58_" d="M344.636,777.5a7.936,7.936,0,1,0,7.936,7.936A7.938,7.938,0,0,0,344.636,777.5Zm0,12.96a5.025,5.025,0,1,1,5.011-5.025A5.029,5.029,0,0,1,344.636,790.46Z" transform="translate(-336.7 -777.5)" fill="#3d3d3e"/>
            <path id="XMLID_54_" d="M362.525,798.4a5.025,5.025,0,1,0,5.011,5.025A5.029,5.029,0,0,0,362.525,798.4Zm4.437,5.738A4.54,4.54,0,0,1,366,806.28a3.214,3.214,0,0,1-.294.322,5.035,5.035,0,0,1-.406.364,4.472,4.472,0,0,1-5.752-.2c-.056-.056-.112-.1-.168-.154-.1-.1-.2-.21-.294-.322a4.351,4.351,0,0,1-.966-2.141,4.516,4.516,0,0,1,.84-3.415,4.433,4.433,0,0,1,.42-.476,1.668,1.668,0,0,1,.168-.154,4.472,4.472,0,0,1,5.752-.2,5.035,5.035,0,0,1,.406.364,4.433,4.433,0,0,1,.42.476A4.523,4.523,0,0,1,366.961,804.138Z" transform="translate(-354.589 -795.475)" fill="#c9cacc"/>
            <path id="XMLID_43_" d="M368.625,803.142a4.472,4.472,0,0,0-5.752.2c-.056.056-.112.1-.168.154a4.437,4.437,0,0,0-.42.476,4.5,4.5,0,0,0,.126,5.556c.1.112.182.21.294.322a1.661,1.661,0,0,0,.168.154,4.472,4.472,0,0,0,5.752.2,4.989,4.989,0,0,0,.406-.364c.1-.1.2-.21.294-.322a4.35,4.35,0,0,0,.966-2.141,4.516,4.516,0,0,0-.84-3.415,4.44,4.44,0,0,0-.42-.476C368.9,803.38,368.765,803.254,368.625,803.142Zm-2.757,6.718a3.177,3.177,0,1,1,3.177-3.177A3.184,3.184,0,0,1,365.868,809.86Zm1.078-6.844a.411.411,0,0,1,.574-.126l.588.308a.391.391,0,1,1-.364.686l-.588-.308A.443.443,0,0,1,366.945,803.016Zm-2.435.63-.574.336a.412.412,0,0,1-.574-.112.417.417,0,0,1,.182-.56l.574-.336a.392.392,0,1,1,.392.672Zm-2.3,3.723a.423.423,0,0,1-.378-.448l.014-.658a.388.388,0,1,1,.77.014l-.014.658A.4.4,0,0,1,362.215,807.369Zm3.009,3a.418.418,0,0,1-.56.182l-.6-.266a.392.392,0,1,1,.308-.714l.616.266A.453.453,0,0,1,365.224,810.364Zm2.365-.84.546-.378a.429.429,0,0,1,.588.056.423.423,0,0,1-.14.574l-.546.378a.429.429,0,0,1-.588-.056A.434.434,0,0,1,367.589,809.524Zm1.973-3.9a.409.409,0,0,1,.406.42l.042.658a.415.415,0,0,1-.364.462.409.409,0,0,1-.406-.42l-.042-.658A.425.425,0,0,1,369.563,805.619Z" transform="translate(-357.932 -798.733)" fill="#8f9194"/>
            <path id="XMLID_40_" d="M373.877,811.5a3.177,3.177,0,1,0,3.177,3.177A3.184,3.184,0,0,0,373.877,811.5Zm0,5.164a1.973,1.973,0,1,1,1.973-1.973A1.971,1.971,0,0,1,373.877,816.665Z" transform="translate(-365.941 -806.741)" fill="#c9cacc"/>
            <path id="XMLID_29_" d="M381.273,820.2a1.973,1.973,0,1,0,1.973,1.973A1.971,1.971,0,0,0,381.273,820.2Zm.952.784a.188.188,0,1,1,0,.266A.195.195,0,0,1,382.225,820.984Zm-.924,2.9a.191.191,0,0,1-.2-.2.2.2,0,1,1,.2.2Zm0-3.387a.2.2,0,1,1,0,.392.191.191,0,0,1-.2-.2A.2.2,0,0,1,381.3,820.494Zm-.028,2.673a.994.994,0,1,1,.994-.994A1,1,0,0,1,381.273,823.167Zm-.854-1.945a.188.188,0,1,1,.014-.266A.182.182,0,0,1,380.42,821.222ZM379.8,822.4a.191.191,0,0,1-.2-.2.2.2,0,1,1,.2.2Zm.588.994a.2.2,0,0,1-.266,0,.172.172,0,0,1,0-.266.188.188,0,0,1,.266.266Zm1.791-.252a.182.182,0,0,1,.266.014.2.2,0,0,1-.294.266A.257.257,0,0,1,382.183,823.139Zm.434-.966a.2.2,0,1,1,.2.2A.21.21,0,0,1,382.617,822.173Z" transform="translate(-373.338 -814.224)" fill="#e4e5e6"/>
            <path id="XMLID_26_" d="M387.294,827.2a.994.994,0,1,0,.994.994A.98.98,0,0,0,387.294,827.2Zm0,1.61a.612.612,0,0,1-.616-.616.616.616,0,1,1,1.232,0A.6.6,0,0,1,387.294,828.81Z" transform="translate(-379.358 -820.244)" fill="#8f9194"/>
            <path id="XMLID_25_" d="M389.616,829.8a.612.612,0,0,0-.616.616.616.616,0,1,0,1.232,0A.6.6,0,0,0,389.616,829.8Z" transform="translate(-381.68 -822.48)" fill="#3d3d3e"/>
            <path id="XMLID_24_" d="M365.47,829.306l.014-.658a.389.389,0,1,0-.77-.014l-.014.658a.423.423,0,0,0,.378.448A.411.411,0,0,0,365.47,829.306Z" transform="translate(-360.781 -821.104)" fill="#616264"/>
            <path id="XMLID_23_" d="M375.95,807.46l-.574.336a.392.392,0,1,0,.392.672l.574-.336a.417.417,0,0,0,.182-.56A.4.4,0,0,0,375.95,807.46Z" transform="translate(-369.764 -803.205)" fill="#616264"/>
            <path id="XMLID_22_" d="M401.075,807.432l.588.308a.391.391,0,1,0,.364-.686l-.588-.308a.427.427,0,0,0-.574.126A.434.434,0,0,0,401.075,807.432Z" transform="translate(-391.852 -802.603)" fill="#616264"/>
            <path id="XMLID_21_" d="M417.237,827.815a.418.418,0,0,0,.406.42.425.425,0,0,0,.364-.462l-.042-.658a.409.409,0,0,0-.406-.42.425.425,0,0,0-.364.462Z" transform="translate(-405.928 -819.809)" fill="#616264"/>
            <path id="XMLID_20_" d="M404.9,852.329l.546-.378a.42.42,0,0,0,.14-.574.414.414,0,0,0-.588-.056l-.546.378a.42.42,0,0,0-.14.574A.429.429,0,0,0,404.9,852.329Z" transform="translate(-394.794 -840.909)" fill="#616264"/>
            <path id="XMLID_19_" d="M379.5,854.914l-.616-.266a.392.392,0,1,0-.308.714l.6.266a.418.418,0,0,0,.56-.182A.4.4,0,0,0,379.5,854.914Z" transform="translate(-372.478 -843.815)" fill="#616264"/>
            <path id="XMLID_18_" d="M392.4,822.592a.2.2,0,0,0,.2-.2.2.2,0,0,0-.392,0A.2.2,0,0,0,392.4,822.592Z" transform="translate(-384.432 -815.944)" fill="#616264"/>
            <path id="XMLID_17_" d="M392.4,843.7a.191.191,0,0,0-.2.2.2.2,0,0,0,.392,0A.191.191,0,0,0,392.4,843.7Z" transform="translate(-384.432 -834.435)" fill="#616264"/>
            <path id="XMLID_16_" d="M403.292,833a.2.2,0,1,0-.2.2A.191.191,0,0,0,403.292,833Z" transform="translate(-393.635 -825.06)" fill="#616264"/>
            <path id="XMLID_15_" d="M381.7,833.1a.2.2,0,1,0,.2.2A.191.191,0,0,0,381.7,833.1Z" transform="translate(-375.23 -825.318)" fill="#616264"/>
            <path id="XMLID_14_" d="M399.883,841.181a.2.2,0,0,0,.014-.28.183.183,0,0,0-.266-.014.213.213,0,0,0-.014.28A.2.2,0,0,0,399.883,841.181Z" transform="translate(-390.772 -831.972)" fill="#616264"/>
            <path id="XMLID_11_" d="M385,825.177a.188.188,0,0,0,.252.28.2.2,0,0,0,.014-.28A.194.194,0,0,0,385,825.177Z" transform="translate(-378.185 -818.459)" fill="#616264"/>
            <path id="XMLID_10_" d="M384.777,840.666a.188.188,0,1,0,.266.266.188.188,0,1,0-.266-.266Z" transform="translate(-378.003 -831.778)" fill="#616264"/>
            <path id="XMLID_9_" d="M400.143,825.743a.188.188,0,1,0-.266,0A.172.172,0,0,0,400.143,825.743Z" transform="translate(-390.99 -818.718)" fill="#616264"/>
          </g>
        </g>
      </g>
      <path id="XMLID_8_" d="M1013.87,603.413l-.854.2a1.842,1.842,0,0,1-1.54-.336l-12.414-9.629a1.387,1.387,0,0,1-.21-2l.028-.042Z" transform="translate(-896.109 -575.281)" fill="#4e0000" fill-rule="evenodd"/>
      <path id="XMLID_49_" d="M899.3,596.288l12.974,9.923a.553.553,0,0,1-.336.994H887.882a.878.878,0,0,1-.882-.882v-9.741a.878.878,0,0,1,.882-.882h9.685A2.915,2.915,0,0,1,899.3,596.288Z" transform="translate(-800.198 -578.807)" fill="#4e0000" fill-rule="evenodd"/>
      <rect id="XMLID_140_" width="0.952" height="10.021" transform="translate(66.97 43.653)" fill="#bf1d25"/>
      <path id="XMLID_141_" d="M978.21,498.685H978V495.2h.21a1.189,1.189,0,0,1,1.19,1.19V497.5A1.189,1.189,0,0,1,978.21,498.685Z" transform="translate(-878.461 -492.373)" fill="#ee8322" fill-rule="evenodd"/>
    </g>
    <path id="XMLID_68_" d="M928.319,595.7c-1.624,1.959-3.149,3.989-4.619,6.06a107.23,107.23,0,0,0,13.072-.952l-5.906-4.521a2.884,2.884,0,0,0-1.736-.588Z" transform="translate(-831.761 -578.807)" fill="#6f0000" fill-rule="evenodd"/>
    <path id="XMLID_69_" d="M890.611,601.788c1.456-2.071,2.953-4.115,4.549-6.088h-7.278a.878.878,0,0,0-.882.882v5.22C888.2,601.8,889.407,601.8,890.611,601.788Z" transform="translate(-800.198 -578.807)" fill="#6f0000" fill-rule="evenodd"/>
  </g>
  <rect id="XMLID_82_" width="94.262" height="15.116" transform="translate(13.506 0)" fill="none"/>
</svg>
